<?xml version="1.0" encoding="utf-8" standalone="no"?>
<!DOCTYPE svg PUBLIC "-//W3C//DTD SVG 1.1//EN"
  "http://www.w3.org/Graphics/SVG/1.1/DTD/svg11.dtd">
<svg xmlns:xlink="http://www.w3.org/1999/xlink" width="400.615743pt" height="337.1825pt" viewBox="0 0 400.615743 337.1825" xmlns="http://www.w3.org/2000/svg" version="1.1">
 <metadata>
  <rdf:RDF xmlns:dc="http://purl.org/dc/elements/1.1/" xmlns:cc="http://creativecommons.org/ns#" xmlns:rdf="http://www.w3.org/1999/02/22-rdf-syntax-ns#">
   <cc:Work>
    <dc:type rdf:resource="http://purl.org/dc/dcmitype/StillImage"/>
    <dc:date>2026-06-25T02:41:35.866161</dc:date>
    <dc:format>image/svg+xml</dc:format>
    <dc:creator>
     <cc:Agent>
      <dc:title>Matplotlib v3.10.8, https://matplotlib.org/</dc:title>
     </cc:Agent>
    </dc:creator>
   </cc:Work>
  </rdf:RDF>
 </metadata>
 <defs>
  <style type="text/css">*{stroke-linejoin: round; stroke-linecap: butt}</style>
 </defs>
 <g id="figure_1">
  <g id="patch_1">
   <path d="M 0 337.1825 
L 400.615743 337.1825 
L 400.615743 0 
L 0 0 
z
" style="fill: #020804"/>
  </g>
  <g id="axes_1">
   <g id="patch_2">
    <path d="M 58.032812 299.52 
L 392.832812 299.52 
L 392.832812 22.32 
L 58.032812 22.32 
z
" style="fill: #020804"/>
   </g>
   <g id="matplotlib.axis_1">
    <g id="xtick_1">
     <g id="line2d_1">
      <path d="M 71.45751 299.52 
L 71.45751 22.32 
" clip-path="url(#p5fc7d271a1)" style="fill: none; stroke-dasharray: 0.8,1.32; stroke-dashoffset: 0; stroke: #0b3d1e; stroke-opacity: 0.25; stroke-width: 0.8"/>
     </g>
     <g id="line2d_2">
      <defs>
       <path id="m2dc4efcd68" d="M 0 0 
L 0 3.5 
" style="stroke: #39ff14; stroke-width: 0.8"/>
      </defs>
      <g>
       <use xlink:href="#m2dc4efcd68" x="71.45751" y="299.52" style="fill: #39ff14; stroke: #39ff14; stroke-width: 0.8"/>
      </g>
     </g>
     <g id="text_1">
      <text style="font-size: 10px; font-family: 'DejaVu Sans Mono', 'Bitstream Vera Sans Mono', 'Computer Modern Typewriter', 'Andale Mono', 'Nimbus Mono L', 'Courier New', 'Courier', 'Fixed', 'Terminal', monospace; text-anchor: middle; fill: #39ff14" x="71.45751" y="314.171562" transform="rotate(-0 71.45751 314.171562)">−1.5</text>
     </g>
    </g>
    <g id="xtick_2">
     <g id="line2d_3">
      <path d="M 123.612137 299.52 
L 123.612137 22.32 
" clip-path="url(#p5fc7d271a1)" style="fill: none; stroke-dasharray: 0.8,1.32; stroke-dashoffset: 0; stroke: #0b3d1e; stroke-opacity: 0.25; stroke-width: 0.8"/>
     </g>
     <g id="line2d_4">
      <g>
       <use xlink:href="#m2dc4efcd68" x="123.612137" y="299.52" style="fill: #39ff14; stroke: #39ff14; stroke-width: 0.8"/>
      </g>
     </g>
     <g id="text_2">
      <text style="font-size: 10px; font-family: 'DejaVu Sans Mono', 'Bitstream Vera Sans Mono', 'Computer Modern Typewriter', 'Andale Mono', 'Nimbus Mono L', 'Courier New', 'Courier', 'Fixed', 'Terminal', monospace; text-anchor: middle; fill: #39ff14" x="123.612137" y="314.171562" transform="rotate(-0 123.612137 314.171562)">−1.0</text>
     </g>
    </g>
    <g id="xtick_3">
     <g id="line2d_5">
      <path d="M 175.766764 299.52 
L 175.766764 22.32 
" clip-path="url(#p5fc7d271a1)" style="fill: none; stroke-dasharray: 0.8,1.32; stroke-dashoffset: 0; stroke: #0b3d1e; stroke-opacity: 0.25; stroke-width: 0.8"/>
     </g>
     <g id="line2d_6">
      <g>
       <use xlink:href="#m2dc4efcd68" x="175.766764" y="299.52" style="fill: #39ff14; stroke: #39ff14; stroke-width: 0.8"/>
      </g>
     </g>
     <g id="text_3">
      <text style="font-size: 10px; font-family: 'DejaVu Sans Mono', 'Bitstream Vera Sans Mono', 'Computer Modern Typewriter', 'Andale Mono', 'Nimbus Mono L', 'Courier New', 'Courier', 'Fixed', 'Terminal', monospace; text-anchor: middle; fill: #39ff14" x="175.766764" y="314.171562" transform="rotate(-0 175.766764 314.171562)">−0.5</text>
     </g>
    </g>
    <g id="xtick_4">
     <g id="line2d_7">
      <path d="M 227.921392 299.52 
L 227.921392 22.32 
" clip-path="url(#p5fc7d271a1)" style="fill: none; stroke-dasharray: 0.8,1.32; stroke-dashoffset: 0; stroke: #0b3d1e; stroke-opacity: 0.25; stroke-width: 0.8"/>
     </g>
     <g id="line2d_8">
      <g>
       <use xlink:href="#m2dc4efcd68" x="227.921392" y="299.52" style="fill: #39ff14; stroke: #39ff14; stroke-width: 0.8"/>
      </g>
     </g>
     <g id="text_4">
      <text style="font-size: 10px; font-family: 'DejaVu Sans Mono', 'Bitstream Vera Sans Mono', 'Computer Modern Typewriter', 'Andale Mono', 'Nimbus Mono L', 'Courier New', 'Courier', 'Fixed', 'Terminal', monospace; text-anchor: middle; fill: #39ff14" x="227.921392" y="314.171562" transform="rotate(-0 227.921392 314.171562)">0.0</text>
     </g>
    </g>
    <g id="xtick_5">
     <g id="line2d_9">
      <path d="M 280.076019 299.52 
L 280.076019 22.32 
" clip-path="url(#p5fc7d271a1)" style="fill: none; stroke-dasharray: 0.8,1.32; stroke-dashoffset: 0; stroke: #0b3d1e; stroke-opacity: 0.25; stroke-width: 0.8"/>
     </g>
     <g id="line2d_10">
      <g>
       <use xlink:href="#m2dc4efcd68" x="280.076019" y="299.52" style="fill: #39ff14; stroke: #39ff14; stroke-width: 0.8"/>
      </g>
     </g>
     <g id="text_5">
      <text style="font-size: 10px; font-family: 'DejaVu Sans Mono', 'Bitstream Vera Sans Mono', 'Computer Modern Typewriter', 'Andale Mono', 'Nimbus Mono L', 'Courier New', 'Courier', 'Fixed', 'Terminal', monospace; text-anchor: middle; fill: #39ff14" x="280.076019" y="314.171562" transform="rotate(-0 280.076019 314.171562)">0.5</text>
     </g>
    </g>
    <g id="xtick_6">
     <g id="line2d_11">
      <path d="M 332.230647 299.52 
L 332.230647 22.32 
" clip-path="url(#p5fc7d271a1)" style="fill: none; stroke-dasharray: 0.8,1.32; stroke-dashoffset: 0; stroke: #0b3d1e; stroke-opacity: 0.25; stroke-width: 0.8"/>
     </g>
     <g id="line2d_12">
      <g>
       <use xlink:href="#m2dc4efcd68" x="332.230647" y="299.52" style="fill: #39ff14; stroke: #39ff14; stroke-width: 0.8"/>
      </g>
     </g>
     <g id="text_6">
      <text style="font-size: 10px; font-family: 'DejaVu Sans Mono', 'Bitstream Vera Sans Mono', 'Computer Modern Typewriter', 'Andale Mono', 'Nimbus Mono L', 'Courier New', 'Courier', 'Fixed', 'Terminal', monospace; text-anchor: middle; fill: #39ff14" x="332.230647" y="314.171562" transform="rotate(-0 332.230647 314.171562)">1.0</text>
     </g>
    </g>
    <g id="xtick_7">
     <g id="line2d_13">
      <path d="M 384.385274 299.52 
L 384.385274 22.32 
" clip-path="url(#p5fc7d271a1)" style="fill: none; stroke-dasharray: 0.8,1.32; stroke-dashoffset: 0; stroke: #0b3d1e; stroke-opacity: 0.25; stroke-width: 0.8"/>
     </g>
     <g id="line2d_14">
      <g>
       <use xlink:href="#m2dc4efcd68" x="384.385274" y="299.52" style="fill: #39ff14; stroke: #39ff14; stroke-width: 0.8"/>
      </g>
     </g>
     <g id="text_7">
      <text style="font-size: 10px; font-family: 'DejaVu Sans Mono', 'Bitstream Vera Sans Mono', 'Computer Modern Typewriter', 'Andale Mono', 'Nimbus Mono L', 'Courier New', 'Courier', 'Fixed', 'Terminal', monospace; text-anchor: middle; fill: #39ff14" x="384.385274" y="314.171562" transform="rotate(-0 384.385274 314.171562)">1.5</text>
     </g>
    </g>
    <g id="text_8">
     <text style="font-size: 10px; font-family: 'DejaVu Sans Mono', 'Bitstream Vera Sans Mono', 'Computer Modern Typewriter', 'Andale Mono', 'Nimbus Mono L', 'Courier New', 'Courier', 'Fixed', 'Terminal', monospace; text-anchor: middle; fill: #39ff14" x="225.432813" y="327.902812" transform="rotate(-0 225.432813 327.902812)">x</text>
    </g>
   </g>
   <g id="matplotlib.axis_2">
    <g id="ytick_1">
     <g id="line2d_15">
      <path d="M 58.032812 275.811582 
L 392.832812 275.811582 
" clip-path="url(#p5fc7d271a1)" style="fill: none; stroke-dasharray: 0.8,1.32; stroke-dashoffset: 0; stroke: #0b3d1e; stroke-opacity: 0.25; stroke-width: 0.8"/>
     </g>
     <g id="line2d_16">
      <defs>
       <path id="md69781fe0d" d="M 0 0 
L -3.5 0 
" style="stroke: #39ff14; stroke-width: 0.8"/>
      </defs>
      <g>
       <use xlink:href="#md69781fe0d" x="58.032812" y="275.811582" style="fill: #39ff14; stroke: #39ff14; stroke-width: 0.8"/>
      </g>
     </g>
     <g id="text_9">
      <text style="font-size: 10px; font-family: 'DejaVu Sans Mono', 'Bitstream Vera Sans Mono', 'Computer Modern Typewriter', 'Andale Mono', 'Nimbus Mono L', 'Courier New', 'Courier', 'Fixed', 'Terminal', monospace; text-anchor: end; fill: #39ff14" x="51.032812" y="279.637363" transform="rotate(-0 51.032812 279.637363)">−0.75</text>
     </g>
    </g>
    <g id="ytick_2">
     <g id="line2d_17">
      <path d="M 58.032812 238.596823 
L 392.832812 238.596823 
" clip-path="url(#p5fc7d271a1)" style="fill: none; stroke-dasharray: 0.8,1.32; stroke-dashoffset: 0; stroke: #0b3d1e; stroke-opacity: 0.25; stroke-width: 0.8"/>
     </g>
     <g id="line2d_18">
      <g>
       <use xlink:href="#md69781fe0d" x="58.032812" y="238.596823" style="fill: #39ff14; stroke: #39ff14; stroke-width: 0.8"/>
      </g>
     </g>
     <g id="text_10">
      <text style="font-size: 10px; font-family: 'DejaVu Sans Mono', 'Bitstream Vera Sans Mono', 'Computer Modern Typewriter', 'Andale Mono', 'Nimbus Mono L', 'Courier New', 'Courier', 'Fixed', 'Terminal', monospace; text-anchor: end; fill: #39ff14" x="51.032812" y="242.422604" transform="rotate(-0 51.032812 242.422604)">−0.50</text>
     </g>
    </g>
    <g id="ytick_3">
     <g id="line2d_19">
      <path d="M 58.032812 201.382064 
L 392.832812 201.382064 
" clip-path="url(#p5fc7d271a1)" style="fill: none; stroke-dasharray: 0.8,1.32; stroke-dashoffset: 0; stroke: #0b3d1e; stroke-opacity: 0.25; stroke-width: 0.8"/>
     </g>
     <g id="line2d_20">
      <g>
       <use xlink:href="#md69781fe0d" x="58.032812" y="201.382064" style="fill: #39ff14; stroke: #39ff14; stroke-width: 0.8"/>
      </g>
     </g>
     <g id="text_11">
      <text style="font-size: 10px; font-family: 'DejaVu Sans Mono', 'Bitstream Vera Sans Mono', 'Computer Modern Typewriter', 'Andale Mono', 'Nimbus Mono L', 'Courier New', 'Courier', 'Fixed', 'Terminal', monospace; text-anchor: end; fill: #39ff14" x="51.032812" y="205.207845" transform="rotate(-0 51.032812 205.207845)">−0.25</text>
     </g>
    </g>
    <g id="ytick_4">
     <g id="line2d_21">
      <path d="M 58.032812 164.167304 
L 392.832812 164.167304 
" clip-path="url(#p5fc7d271a1)" style="fill: none; stroke-dasharray: 0.8,1.32; stroke-dashoffset: 0; stroke: #0b3d1e; stroke-opacity: 0.25; stroke-width: 0.8"/>
     </g>
     <g id="line2d_22">
      <g>
       <use xlink:href="#md69781fe0d" x="58.032812" y="164.167304" style="fill: #39ff14; stroke: #39ff14; stroke-width: 0.8"/>
      </g>
     </g>
     <g id="text_12">
      <text style="font-size: 10px; font-family: 'DejaVu Sans Mono', 'Bitstream Vera Sans Mono', 'Computer Modern Typewriter', 'Andale Mono', 'Nimbus Mono L', 'Courier New', 'Courier', 'Fixed', 'Terminal', monospace; text-anchor: end; fill: #39ff14" x="51.032812" y="167.993086" transform="rotate(-0 51.032812 167.993086)">0.00</text>
     </g>
    </g>
    <g id="ytick_5">
     <g id="line2d_23">
      <path d="M 58.032812 126.952545 
L 392.832812 126.952545 
" clip-path="url(#p5fc7d271a1)" style="fill: none; stroke-dasharray: 0.8,1.32; stroke-dashoffset: 0; stroke: #0b3d1e; stroke-opacity: 0.25; stroke-width: 0.8"/>
     </g>
     <g id="line2d_24">
      <g>
       <use xlink:href="#md69781fe0d" x="58.032812" y="126.952545" style="fill: #39ff14; stroke: #39ff14; stroke-width: 0.8"/>
      </g>
     </g>
     <g id="text_13">
      <text style="font-size: 10px; font-family: 'DejaVu Sans Mono', 'Bitstream Vera Sans Mono', 'Computer Modern Typewriter', 'Andale Mono', 'Nimbus Mono L', 'Courier New', 'Courier', 'Fixed', 'Terminal', monospace; text-anchor: end; fill: #39ff14" x="51.032812" y="130.778326" transform="rotate(-0 51.032812 130.778326)">0.25</text>
     </g>
    </g>
    <g id="ytick_6">
     <g id="line2d_25">
      <path d="M 58.032812 89.737786 
L 392.832812 89.737786 
" clip-path="url(#p5fc7d271a1)" style="fill: none; stroke-dasharray: 0.8,1.32; stroke-dashoffset: 0; stroke: #0b3d1e; stroke-opacity: 0.25; stroke-width: 0.8"/>
     </g>
     <g id="line2d_26">
      <g>
       <use xlink:href="#md69781fe0d" x="58.032812" y="89.737786" style="fill: #39ff14; stroke: #39ff14; stroke-width: 0.8"/>
      </g>
     </g>
     <g id="text_14">
      <text style="font-size: 10px; font-family: 'DejaVu Sans Mono', 'Bitstream Vera Sans Mono', 'Computer Modern Typewriter', 'Andale Mono', 'Nimbus Mono L', 'Courier New', 'Courier', 'Fixed', 'Terminal', monospace; text-anchor: end; fill: #39ff14" x="51.032812" y="93.563567" transform="rotate(-0 51.032812 93.563567)">0.50</text>
     </g>
    </g>
    <g id="ytick_7">
     <g id="line2d_27">
      <path d="M 58.032812 52.523026 
L 392.832812 52.523026 
" clip-path="url(#p5fc7d271a1)" style="fill: none; stroke-dasharray: 0.8,1.32; stroke-dashoffset: 0; stroke: #0b3d1e; stroke-opacity: 0.25; stroke-width: 0.8"/>
     </g>
     <g id="line2d_28">
      <g>
       <use xlink:href="#md69781fe0d" x="58.032812" y="52.523026" style="fill: #39ff14; stroke: #39ff14; stroke-width: 0.8"/>
      </g>
     </g>
     <g id="text_15">
      <text style="font-size: 10px; font-family: 'DejaVu Sans Mono', 'Bitstream Vera Sans Mono', 'Computer Modern Typewriter', 'Andale Mono', 'Nimbus Mono L', 'Courier New', 'Courier', 'Fixed', 'Terminal', monospace; text-anchor: end; fill: #39ff14" x="51.032812" y="56.348808" transform="rotate(-0 51.032812 56.348808)">0.75</text>
     </g>
    </g>
    <g id="text_16">
     <text style="font-size: 10px; font-family: 'DejaVu Sans Mono', 'Bitstream Vera Sans Mono', 'Computer Modern Typewriter', 'Andale Mono', 'Nimbus Mono L', 'Courier New', 'Courier', 'Fixed', 'Terminal', monospace; text-anchor: middle; fill: #39ff14" x="14.851562" y="160.92" transform="rotate(-90 14.851562 160.92)">v</text>
    </g>
   </g>
   <g id="line2d_29">
    <path d="M 238.352317 164.167304 
L 238.484784 159.454122 
L 238.879275 154.819391 
L 239.531318 150.265788 
L 240.436289 145.796134 
L 241.589398 141.413295 
L 242.985702 137.120123 
L 244.620092 132.919448 
L 246.487304 128.814151 
L 248.581907 124.807298 
L 250.898287 120.902362 
L 253.430618 117.10353 
L 256.172809 113.416089 
L 259.118433 109.846901 
L 262.26062 106.404957 
L 265.591922 103.101995 
L 269.104141 99.953178 
L 272.788116 96.977791 
L 276.633473 94.199949 
L 280.628335 91.649249 
L 284.759001 89.361316 
L 289.009593 87.378177 
L 293.361693 85.748368 
L 297.793988 84.526675 
L 300.032672 84.087532 
L 302.281932 83.773399 
L 304.53815 83.592462 
L 306.797475 83.553047 
L 309.055823 83.663548 
L 311.308876 83.93233 
L 313.55208 84.367627 
L 315.780656 84.977428 
L 317.989605 85.769346 
L 320.173721 86.750489 
L 322.327608 87.927307 
L 324.445702 89.305442 
L 326.52229 90.889575 
L 328.551547 92.683261 
L 330.527563 94.68878 
L 332.444386 96.906977 
L 334.296062 99.337128 
L 336.076678 101.976806 
L 337.780418 104.82177 
L 339.401609 107.86588 
L 340.934778 111.101029 
L 342.374708 114.517113 
L 343.716491 118.10203 
L 344.955588 121.841715 
L 346.087881 125.720212 
L 347.109724 129.719782 
L 348.01799 133.821053 
L 348.810118 138.003197 
L 349.484148 142.244145 
L 350.038753 146.520833 
L 350.473262 150.809461 
L 350.787682 155.085777 
L 350.982698 159.325376 
L 351.05968 163.50399 
L 351.020674 167.597786 
L 350.868383 171.583651 
L 350.606144 175.439462 
L 350.237899 179.144325 
L 349.768155 182.678803 
L 349.20194 186.025096 
L 348.544759 189.167198 
L 347.802536 192.091014 
L 346.981565 194.784435 
L 346.088448 197.237389 
L 345.130044 199.441842 
L 344.113407 201.391782 
L 343.045731 203.083159 
L 341.934298 204.51381 
L 340.786426 205.683356 
L 339.609419 206.593083 
L 338.410523 207.245813 
L 337.196886 207.645757 
L 335.975519 207.798374 
L 334.753265 207.71022 
L 333.53677 207.388799 
L 332.332457 206.842424 
L 331.146506 206.080079 
L 329.984839 205.111293 
L 328.853104 203.946022 
L 327.756663 202.594541 
L 326.700591 201.067352 
L 325.689663 199.375099 
L 324.728354 197.528499 
L 322.971002 193.415146 
L 321.458345 188.812508 
L 320.215457 183.804304 
L 319.262772 178.472305 
L 318.616195 172.896371 
L 318.287198 167.154855 
L 318.282888 161.325272 
L 318.606033 155.485135 
L 319.255032 149.712854 
L 320.223843 144.088617 
L 321.501864 138.695138 
L 323.073768 133.618195 
L 324.919331 128.946824 
L 327.013251 124.773065 
L 328.144011 122.902186 
L 329.324998 121.191141 
L 330.551565 119.651801 
L 331.818734 118.295943 
L 333.121199 117.135154 
L 334.453334 116.180736 
L 335.8092 115.443579 
L 337.182562 114.934036 
L 338.566901 114.661783 
L 339.955442 114.635663 
L 341.341173 114.863531 
L 342.716877 115.352086 
L 344.07517 116.106709 
L 345.408536 117.131293 
L 346.709371 118.428083 
L 347.970037 119.997529 
L 349.182907 121.838146 
L 350.340424 123.946397 
L 351.435162 126.316604 
L 352.459884 128.94088 
L 353.407605 131.809095 
L 354.271656 134.908889 
L 355.045745 138.225708 
L 355.724018 141.742891 
L 356.301115 145.4418 
L 356.772225 149.301982 
L 357.133134 153.301381 
L 357.380265 157.416574 
L 357.510713 161.623048 
L 357.522274 165.895496 
L 357.413459 170.208137 
L 357.183504 174.535038 
L 356.832372 178.850448 
L 356.36074 183.129124 
L 355.769982 187.346644 
L 355.062142 191.479696 
L 354.239898 195.506352 
L 353.306522 199.406291 
L 352.265828 203.161005 
L 351.122125 206.753951 
L 349.880153 210.170664 
L 348.545031 213.398835 
L 347.122189 216.428335 
L 345.617313 219.251213 
L 344.03628 221.861646 
L 342.385104 224.255861 
L 340.669874 226.43203 
L 338.896706 228.39014 
L 337.071692 230.13184 
L 335.200858 231.660281 
L 333.290122 232.979944 
L 331.345258 234.096458 
L 329.37187 235.016427 
L 327.375364 235.747254 
L 325.360933 236.29697 
L 323.333532 236.674075 
L 321.297878 236.887389 
L 319.258436 236.945913 
L 317.219416 236.858705 
L 315.184778 236.634766 
L 313.15823 236.282947 
L 311.143234 235.811862 
L 307.160573 234.544759 
L 303.259935 232.895265 
L 299.461187 230.91812 
L 295.78134 228.66031 
L 292.234998 226.160886 
L 288.834792 223.451179 
L 285.591802 220.555282 
L 282.515945 217.490721 
L 279.616323 214.26923 
L 276.901521 210.897573 
L 274.379867 207.378363 
L 272.059639 203.710861 
L 269.949233 199.89172 
L 268.057291 195.915669 
L 266.392788 191.776129 
L 264.965092 187.465766 
L 263.783992 182.976976 
L 262.8597 178.302311 
L 262.202834 173.434864 
L 261.824374 168.368616 
L 261.735605 163.098763 
L 261.948041 157.622055 
L 262.473324 151.937152 
L 263.32311 146.04505 
L 264.508921 139.949593 
L 266.041969 133.658125 
L 267.932936 127.182326 
L 270.191706 120.53928 
L 272.827021 113.752824 
L 275.84606 106.85524 
L 279.253906 99.889309 
L 283.052897 92.91076 
L 287.241817 85.991085 
L 291.814928 79.220642 
L 294.242247 75.925575 
L 296.760823 72.711889 
L 299.368127 69.597602 
L 302.061099 66.602471 
L 304.836103 63.748052 
L 307.688869 61.05773 
L 310.614451 58.556725 
L 313.607167 56.272055 
L 316.660554 54.232462 
L 319.767322 52.468282 
L 322.919309 51.011248 
L 326.107448 49.894237 
L 329.321738 49.150931 
L 332.551226 48.815403 
L 335.784007 48.921616 
L 339.007231 49.502837 
L 342.207132 50.590965 
L 345.369079 52.215783 
L 348.477644 54.404144 
L 351.5167 57.179103 
L 354.469535 60.559029 
L 357.319 64.556702 
L 360.047674 69.178454 
L 362.63806 74.423372 
L 365.072797 80.282602 
L 367.334889 86.738814 
L 369.407948 93.765833 
L 371.276447 101.32851 
L 372.925969 109.382827 
L 374.34345 117.876272 
L 375.517411 126.748491 
L 376.438162 135.932205 
L 377.097985 145.354372 
L 377.491272 154.937566 
L 377.614631 164.601521 
L 377.466937 174.264785 
L 377.049349 183.846425 
L 376.365265 193.26771 
L 375.420239 202.453708 
L 374.221857 211.334748 
L 372.779568 219.847676 
L 371.104487 227.936887 
L 369.209176 235.555088 
L 367.107394 242.663786 
L 364.813858 249.233514 
L 362.343982 255.243785 
L 359.713632 260.682822 
L 356.938887 265.547073 
L 354.035819 269.840574 
L 351.020288 273.574176 
L 347.907764 276.764693 
L 344.713174 279.433997 
L 341.450771 281.60811 
L 338.134031 283.316298 
L 334.775574 284.590226 
L 331.387109 285.463157 
L 327.979398 285.969237 
L 324.562242 286.142855 
L 321.14448 286.018095 
L 317.734006 285.628276 
L 314.337796 285.005568 
L 310.961943 284.180703 
L 307.611701 283.182743 
L 304.291537 282.038927 
L 297.755674 279.412995 
L 291.376338 276.481651 
L 282.126832 271.82676 
L 262.04797 261.451885 
L 254.029999 257.673247 
L 248.851828 255.444703 
L 243.791808 253.458528 
L 238.836308 251.715385 
L 233.971807 250.210829 
L 229.185145 248.936616 
L 224.463711 247.881682 
L 219.795572 247.032837 
L 215.169584 246.375218 
L 210.575479 245.892515 
L 203.724004 245.457315 
L 196.896555 245.309256 
L 187.79528 245.425821 
L 169.516652 245.869163 
L 162.650257 245.728115 
L 158.085834 245.418494 
L 153.545057 244.875504 
L 149.042544 244.043998 
L 144.596046 242.867618 
L 140.226467 241.290595 
L 138.077896 240.335128 
L 135.957769 239.26003 
L 133.869519 238.059587 
L 131.816735 236.728625 
L 129.803139 235.262615 
L 127.832571 233.657777 
L 125.908966 231.911186 
L 124.036327 230.020873 
L 122.218698 227.985927 
L 120.460132 225.806582 
L 118.764659 223.4843 
L 117.13625 221.021845 
L 115.578779 218.423334 
L 114.095985 215.694281 
L 112.691435 212.84161 
L 111.368478 209.87366 
L 110.130214 206.800158 
L 108.979449 203.632173 
L 106.949964 197.063291 
L 105.295314 190.279129 
L 104.024072 183.406394 
L 103.137419 176.581138 
L 102.628789 169.942705 
L 102.483861 163.62735 
L 102.680908 157.762044 
L 103.191476 152.458971 
L 103.981342 147.811115 
L 105.011686 143.889198 
L 106.240387 140.740095 
L 106.915387 139.463406 
L 107.623369 138.386657 
L 108.358737 137.509129 
L 109.115931 136.828792 
L 109.889467 136.342387 
L 110.673969 136.04552 
L 111.464198 135.932754 
L 112.255081 135.997714 
L 113.041735 136.233185 
L 113.819493 136.631213 
L 114.583915 137.183208 
L 115.330814 137.880035 
L 116.756611 139.669475 
L 118.068815 141.918924 
L 119.243984 144.544328 
L 120.263436 147.460231 
L 121.11328 150.581424 
L 121.78436 153.824238 
L 122.272149 157.107528 
L 122.576575 160.353436 
L 122.701828 163.487989 
L 122.656121 166.441622 
L 122.451433 169.149661 
L 122.103219 171.552844 
L 121.630092 173.597892 
L 121.053468 175.23816 
L 120.397174 176.434368 
L 119.687018 177.155397 
L 119.320229 177.330426 
L 118.950301 177.3791 
L 118.580794 177.300185 
L 118.215295 177.093099 
L 117.510679 176.295468 
L 116.864932 174.995262 
L 116.305711 173.212774 
L 115.85922 170.979482 
L 115.549598 168.337597 
L 115.398331 165.339202 
L 115.423742 162.044967 
L 115.640547 158.52247 
L 116.05953 154.844207 
L 116.687322 151.085376 
L 117.526316 147.321569 
L 118.574711 143.626507 
L 119.826676 140.069944 
L 121.272623 136.715864 
L 122.899572 133.621062 
L 124.691587 130.834162 
L 126.630246 128.395089 
L 128.695138 126.334991 
L 130.864344 124.676549 
L 133.114896 123.434618 
L 135.423195 122.617107 
L 137.765367 122.226014 
L 140.117567 122.258543 
L 142.456214 122.708201 
L 144.758172 123.565847 
L 147.000866 124.820621 
L 149.162364 126.460733 
L 151.221402 128.474087 
L 153.157394 130.84875 
L 154.950409 133.573236 
L 156.581146 136.636653 
L 158.030895 140.028688 
L 159.281515 143.739467 
L 160.315408 147.759293 
L 161.115525 152.078267 
L 161.66539 156.685814 
L 161.949148 161.570095 
L 161.951663 166.717328 
L 161.658643 172.110986 
L 161.056819 177.730888 
L 160.134181 183.552152 
L 158.880275 189.54401 
L 157.286563 195.668475 
L 155.346877 201.878858 
L 153.057947 208.118158 
L 150.420024 214.31736 
L 147.437608 220.393724 
L 144.12026 226.249188 
L 142.340576 229.058921 
L 140.483495 231.769076 
L 138.552045 234.362601 
L 136.549746 236.821361 
L 134.480642 239.126166 
L 132.349328 241.256832 
L 130.160981 243.192262 
L 127.921376 244.910562 
L 125.636914 246.389187 
L 123.314635 247.605133 
L 120.962227 248.535157 
L 118.58803 249.156055 
L 116.20103 249.444968 
L 113.810843 249.379742 
L 111.427696 248.939318 
L 109.062382 248.104172 
L 106.726216 246.85677 
L 104.430969 245.182054 
L 102.188797 243.067938 
L 100.012144 240.505798 
L 97.913644 237.490946 
L 95.906001 234.023071 
L 94.001862 230.106623 
L 92.213679 225.751129 
L 90.553561 220.971419 
L 89.033129 215.78774 
L 87.663359 210.225756 
L 86.454431 204.316413 
L 85.415591 198.095669 
L 84.555007 191.60408 
L 83.879655 184.886257 
L 83.39521 177.990201 
L 83.105963 170.966529 
L 83.014762 163.867621 
L 83.122969 156.746701 
L 83.430455 149.656901 
L 83.935615 142.65032 
L 84.635407 135.77712 
L 85.525422 129.08468 
L 86.599969 122.616844 
L 87.852187 116.413276 
L 89.274167 110.508938 
L 90.857092 104.933706 
L 92.591379 99.712132 
L 94.466835 94.863328 
L 96.472809 90.401002 
L 98.598336 86.333595 
L 100.832288 82.664538 
L 103.163507 79.392588 
L 105.580929 76.512236 
L 108.073702 74.014167 
L 110.63128 71.885749 
L 113.243512 70.111543 
L 115.900714 68.673808 
L 118.593725 67.552989 
L 121.313953 66.728196 
L 124.053405 66.17763 
L 126.804705 65.878992 
L 129.561107 65.809831 
L 132.316493 65.947859 
L 135.065362 66.271222 
L 137.802818 66.758716 
L 140.52455 67.389977 
L 145.906343 69.007335 
L 151.186847 70.981666 
L 156.349575 73.190479 
L 163.852052 76.723466 
L 184.59494 86.838711 
L 190.976806 89.64534 
L 197.13764 92.094578 
L 203.1075 94.189946 
L 208.915346 95.95265 
L 214.58788 97.414106 
L 220.148934 98.610349 
L 225.61926 99.578054 
L 232.802155 100.572124 
L 239.889552 101.292317 
L 246.908837 101.795361 
L 255.620027 102.182419 
L 264.292549 102.355762 
L 274.685244 102.35317 
L 297.246639 102.250202 
L 302.446022 102.446374 
L 307.620618 102.852669 
L 311.046461 103.2809 
L 314.44402 103.866419 
L 317.803684 104.637698 
L 321.114228 105.623767 
L 324.362803 106.853235 
L 327.534997 108.353123 
L 330.61496 110.147524 
L 333.585604 112.25615 
L 336.428897 114.692826 
L 339.126229 117.464015 
L 341.658868 120.567498 
L 344.008473 123.991293 
L 346.157669 127.712963 
L 348.090635 131.699384 
L 349.793702 135.907078 
L 351.255908 140.283137 
L 352.469486 144.766736 
L 353.430256 149.29118 
L 354.137884 153.786372 
L 354.595995 158.181555 
L 354.812136 162.408147 
L 354.797569 166.402478 
L 354.566935 170.108249 
L 354.13777 173.478566 
L 353.529942 176.477424 
L 352.765009 179.080604 
L 351.86555 181.275948 
L 350.854491 183.06307 
L 349.754469 184.452563 
L 348.587243 185.464819 
L 347.373193 186.128549 
L 346.130891 186.47914 
L 344.876779 186.556934 
L 343.624939 186.405528 
L 342.386955 186.070161 
L 340.57504 185.321223 
L 338.271159 184.089877 
L 335.073699 182.346878 
L 333.572587 181.729728 
L 332.113068 181.36455 
L 330.672565 181.280096 
L 329.227158 181.479706 
L 327.753647 181.943403 
L 325.710146 182.900166 
L 318.786615 186.571426 
L 316.872694 187.248368 
L 314.912384 187.661323 
L 313.592072 187.751315 
L 312.271481 187.66786 
L 310.960899 187.391025 
L 309.671687 186.902497 
L 308.416187 186.185658 
L 307.207622 185.225644 
L 306.059999 184.009383 
L 304.988007 182.525639 
L 304.00691 180.76505 
L 303.132447 178.720196 
L 302.380712 176.385695 
L 301.768043 173.758338 
L 301.310893 170.837276 
L 301.02569 167.624272 
L 300.928682 164.124017 
L 301.035763 160.344533 
L 301.362275 156.297666 
L 301.922771 151.999666 
L 302.730759 147.471891 
L 303.798383 142.7416 
L 305.136076 137.842864 
L 306.752144 132.817574 
L 308.652304 127.716515 
L 310.839148 122.600487 
L 313.311553 117.54139 
L 316.064035 112.623176 
L 319.086044 107.94256 
L 322.361246 103.609274 
L 324.08693 101.610653 
L 325.866799 99.745679 
L 327.69687 98.031406 
L 329.572673 96.48545 
L 331.489238 95.125876 
L 333.441084 93.971065 
L 335.422213 93.039552 
L 337.426105 92.349832 
L 339.445727 91.920145 
L 341.473541 91.76823 
L 343.501521 91.911052 
L 345.521179 92.364504 
L 347.523604 93.143092 
L 349.499497 94.259604 
L 351.439232 95.724766 
L 353.332913 97.5469 
L 355.17045 99.731593 
L 356.941638 102.281372 
L 358.636248 105.195426 
L 360.244121 108.46935 
L 361.755277 112.094954 
L 363.160019 116.060129 
L 364.449045 120.348788 
L 365.613561 124.940887 
L 366.645387 129.812534 
L 367.537065 134.936188 
L 368.281958 140.280951 
L 368.874337 145.812945 
L 369.309457 151.495769 
L 369.583627 157.291028 
L 369.694249 163.158921 
L 369.639855 169.058862 
L 369.420119 174.950132 
L 369.035848 180.792531 
L 368.488964 186.547013 
L 367.782457 192.176292 
L 366.920333 197.645393 
L 365.90754 202.922137 
L 364.749884 207.977551 
L 363.453932 212.78619 
L 362.026915 217.326374 
L 360.476616 221.580324 
L 358.811261 225.534213 
L 357.039407 229.178137 
L 355.169838 232.505997 
L 353.211454 235.515323 
L 351.173179 238.207039 
L 349.063865 240.585175 
L 346.892212 242.656558 
L 344.666694 244.430467 
L 342.395493 245.918289 
L 340.086447 247.13316 
L 337.747007 248.089626 
L 335.384198 248.803309 
L 333.004597 249.290591 
L 330.614315 249.568332 
L 328.218984 249.653604 
L 325.823762 249.563456 
L 323.433328 249.314717 
L 321.051896 248.923812 
L 318.683227 248.406626 
L 313.99706 247.05352 
L 309.396565 245.367641 
L 304.897574 243.447309 
L 298.361688 240.306112 
L 290.068935 235.957394 
L 269.673995 225.071073 
L 259.853943 220.152867 
L 246.574013 213.547034 
L 241.199921 210.64228 
L 236.157059 207.625268 
L 232.601973 205.248065 
L 229.251681 202.752067 
L 226.11659 200.128998 
L 223.207378 197.380726 
L 220.534131 194.519506 
L 218.105469 191.56793 
L 215.927686 188.558589 
L 214.00394 185.53342 
L 212.3335 182.542776 
L 210.490431 178.709303 
L 209.06092 175.191898 
L 207.589634 170.866742 
L 206.503791 167.747199 
L 206.309274 167.572197 
L 206.116849 167.675395 
L 205.796762 168.387202 
L 205.034087 171.178268 
L 202.987852 178.754763 
L 201.009666 185.119461 
L 199.011396 190.885605 
L 196.492621 197.497532 
L 193.382992 204.933855 
L 189.614809 213.151891 
L 186.705465 219.03071 
L 183.45841 225.19456 
L 179.858772 231.602076 
L 175.894342 238.199078 
L 171.556381 244.915526 
L 166.840598 251.662042 
L 161.748345 258.326078 
L 159.063349 261.584686 
L 156.288024 264.767975 
L 153.424788 267.853645 
L 150.476714 270.817281 
L 147.447591 273.632295 
L 144.341982 276.269898 
L 141.16529 278.699121 
L 137.923813 280.886877 
L 134.624807 282.798092 
L 131.276535 284.395903 
L 127.888318 285.641938 
L 124.470565 286.496694 
L 121.034807 286.92 
L 117.593702 286.871605 
L 114.161027 286.311855 
L 110.751658 285.202495 
L 107.381508 283.507557 
L 104.067459 281.194344 
L 100.827249 278.234486 
L 97.679339 274.605029 
L 94.642743 270.289544 
L 91.736833 265.279189 
L 88.98111 259.573707 
L 86.394953 253.182283 
L 83.99734 246.124221 
L 81.806564 238.429394 
L 79.839929 230.138406 
L 78.113451 221.302446 
L 76.641569 211.982803 
L 75.436872 202.250038 
L 74.509854 192.18281 
L 73.868708 181.866403 
L 73.519164 171.390991 
L 73.464378 160.849701 
L 73.704879 150.336559 
L 74.238571 139.94439 
L 75.060798 129.762771 
L 76.164462 119.876116 
L 77.540191 110.361961 
L 79.176553 101.289519 
L 81.060306 92.718551 
L 83.176676 84.698567 
L 85.50965 77.268391 
L 88.04228 70.456043 
L 90.756978 64.278958 
L 93.635814 58.744458 
L 96.660785 53.850475 
L 99.814068 49.586435 
L 103.078241 45.934282 
L 106.436485 42.869569 
L 109.872738 40.362581 
L 113.371835 38.379447 
L 116.919604 36.883203 
L 120.502943 35.834788 
L 124.109861 35.19394 
L 127.729504 34.92 
L 131.352156 34.972598 
L 134.96922 35.312232 
L 138.57319 35.900739 
L 142.157604 36.701664 
L 145.716997 37.68054 
L 149.246839 38.805083 
L 156.204048 41.373608 
L 163.009262 44.195766 
L 182.463366 52.610978 
L 188.647776 55.033124 
L 194.704845 57.146003 
L 200.653116 58.909442 
L 206.512939 60.298562 
L 212.305699 61.300875 
L 218.05319 61.913988 
L 223.777097 62.143902 
L 229.498563 62.003871 
L 235.237798 61.513816 
L 241.013712 60.700236 
L 246.843537 59.596589 
L 252.742418 58.244097 
L 261.746926 55.861312 
L 280.399139 50.68796 
L 286.803878 49.182794 
L 293.285 47.985544 
L 296.547892 47.546923 
L 299.821268 47.240787 
L 303.10113 47.087672 
L 306.38289 47.108926 
L 309.661354 47.326559 
L 312.930704 47.763054 
L 316.184487 48.441143 
L 319.415612 49.383528 
L 322.616357 50.612567 
L 325.778383 52.149912 
L 328.892756 54.01611 
L 331.949988 56.230157 
L 334.940087 58.809037 
L 337.852618 61.767227 
L 340.676779 65.116199 
L 343.401498 68.863923 
L 346.015532 73.014391 
L 348.507588 77.567177 
L 350.866451 82.517053 
L 353.081123 87.85368 
L 355.140971 93.56139 
L 357.035878 99.619077 
L 358.756392 106.000214 
L 360.293882 112.673001 
L 361.640678 119.600648 
L 362.790204 126.741803 
L 363.737104 134.05111 
L 364.477341 141.479885 
L 365.008278 148.976897 
L 365.328741 156.489235 
L 365.439053 163.963215 
L 365.341041 171.345326 
L 365.038016 178.583157 
L 364.534737 185.626294 
L 363.837333 192.427148 
L 362.953223 198.941689 
L 361.890999 205.130078 
L 360.660309 210.957161 
L 359.271712 216.392836 
L 357.73654 221.412275 
L 356.066746 225.996015 
L 354.274751 230.129918 
L 352.373301 233.805016 
L 350.375325 237.017252 
L 348.2938 239.76714 
L 346.141627 242.059359 
L 343.931525 243.902302 
L 341.675932 245.307593 
L 339.386918 246.289594 
L 337.07612 246.864916 
L 334.754683 247.051944 
L 332.433217 246.870388 
L 330.121765 246.340868 
L 327.829785 245.484535 
L 325.566137 244.322737 
L 323.339086 242.876731 
L 321.156304 241.167432 
L 319.024882 239.215211 
L 316.951354 237.039733 
L 314.941709 234.659827 
L 313.001426 232.093397 
L 311.135492 229.357358 
L 309.348437 226.467605 
L 307.644359 223.438997 
L 306.026952 220.285367 
L 304.49954 217.019546 
L 303.065098 213.6534 
L 301.726283 210.197877 
L 300.485457 206.663063 
L 299.34471 203.058245 
L 298.305882 199.391974 
L 297.370585 195.672137 
L 296.540217 191.906024 
L 295.815977 188.100405 
L 294.689786 180.395519 
L 293.998154 172.603831 
L 293.744744 164.76779 
L 293.930898 156.928104 
L 294.555677 149.125829 
L 295.61578 141.404423 
L 296.307358 137.588781 
L 297.105358 133.811765 
L 298.008602 130.080378 
L 299.015707 126.402144 
L 300.12507 122.785172 
L 301.334853 119.238206 
L 302.642963 115.770686 
L 304.047033 112.392794 
L 305.544399 109.115499 
L 307.132078 105.950594 
L 308.806744 102.910728 
L 310.564705 100.009422 
L 312.401878 97.261072 
L 314.313763 94.680943 
L 316.295423 92.285134 
L 318.341455 90.090532 
L 320.445974 88.114735 
L 322.602595 86.37595 
L 324.804414 84.89286 
L 327.043996 83.684462 
L 329.313376 82.769864 
L 331.604052 82.168056 
L 333.906994 81.897633 
L 336.212661 81.976496 
L 338.511025 82.421512 
L 340.791601 83.248146 
L 343.043498 84.470071 
L 345.255468 86.098762 
L 347.41598 88.143083 
L 349.513295 90.608873 
L 351.535557 93.498558 
L 353.470895 96.810783 
L 355.307531 100.540097 
L 357.033902 104.676693 
L 358.638783 109.206223 
L 360.111416 114.109706 
L 361.441638 119.363526 
L 362.620014 124.939546 
L 363.637959 130.80533 
L 364.487852 136.924481 
L 365.163142 143.257087 
L 365.658442 149.760269 
L 365.9696 156.388818 
L 366.093755 163.095903 
L 366.029372 169.833825 
L 365.776259 176.554812 
L 365.335552 183.211796 
L 364.709688 189.759191 
L 363.902352 196.153609 
L 362.918408 202.354515 
L 361.763809 208.324799 
L 360.445494 214.031248 
L 358.971273 219.444904 
L 357.349707 224.541318 
L 355.589977 229.300678 
L 353.701752 233.707839 
L 351.695064 237.752237 
L 349.580176 241.427724 
L 347.367466 244.732315 
L 345.067311 247.667874 
L 342.689989 250.239749 
L 340.245582 252.456376 
L 337.743896 254.32886 
L 335.194396 255.870546 
L 332.606145 257.096602 
L 329.98776 258.02361 
L 327.347378 258.669183 
L 324.692632 259.051607 
L 322.030637 259.189522 
L 319.367986 259.101628 
L 316.710745 258.806439 
L 314.064472 258.322068 
L 311.434221 257.666045 
L 308.824566 256.855175 
L 306.239621 255.905424 
L 303.683067 254.831835 
L 298.667835 252.368374 
L 293.800656 249.565004 
L 289.098161 246.505554 
L 284.572724 243.258117 
L 280.233318 239.876296 
L 276.086278 236.400805 
L 272.135978 232.86123 
L 268.385404 229.277815 
L 264.836627 225.663165 
L 261.491192 222.023835 
L 258.350407 218.361744 
L 255.415579 214.675427 
L 252.688161 210.961105 
L 250.169864 207.213588 
L 247.862713 203.427022 
L 245.769062 199.595498 
L 243.891589 195.713517 
L 242.233258 191.776353 
L 240.797274 187.780302 
L 239.587012 183.722843 
L 238.605956 179.602714 
L 237.857627 175.419921 
L 237.345507 171.175689 
L 237.07298 166.872364 
L 237.043269 162.51328 
L 237.259387 158.102605 
L 237.724092 153.645179 
L 238.439859 149.146359 
L 239.408847 144.611888 
L 240.632888 140.047796 
L 242.113466 135.46037 
L 243.851708 130.856184 
L 245.848359 126.242229 
L 248.103756 121.626148 
L 250.617783 117.016594 
L 253.389795 112.423736 
L 256.418524 107.859909 
L 259.701929 103.340433 
L 263.237004 98.884596 
L 267.019525 94.516799 
L 271.043725 90.267837 
L 275.301902 86.176297 
L 279.783937 82.289982 
L 284.476741 78.667307 
L 289.363624 75.378503 
L 291.873477 73.884701 
L 294.423607 72.506469 
L 297.010605 71.256195 
L 299.6307 70.147051 
L 302.279744 69.192948 
L 304.953188 68.408477 
L 307.646066 67.808822 
L 310.35298 67.409652 
L 313.068085 67.226982 
L 315.785086 67.277013 
L 318.497235 67.575933 
L 321.197331 68.139696 
L 323.877732 68.983767 
L 326.530374 70.122842 
L 329.146793 71.570544 
L 331.718165 73.339092 
L 334.235345 75.438965 
L 336.688924 77.878545 
L 339.06929 80.663775 
L 341.366705 83.797809 
L 343.571383 87.2807 
L 345.673585 91.109108 
L 347.663716 95.276055 
L 349.532428 99.770741 
L 351.270733 104.578416 
L 352.870112 109.680342 
L 354.322625 115.053829 
L 355.621024 120.67237 
L 356.758855 126.505858 
L 357.730552 132.52091 
L 358.53153 138.681262 
L 359.158252 144.94826 
L 359.608293 151.281403 
L 359.880382 157.638952 
L 359.974427 163.978567 
L 359.891525 170.257968 
L 359.633948 176.435589 
L 359.205117 182.471209 
L 358.609553 188.326551 
L 357.852817 193.965816 
L 356.941434 199.35615 
L 355.882803 204.468031 
L 354.685101 209.275564 
L 353.357175 213.756685 
L 351.908439 217.893276 
L 350.348757 221.671185 
L 348.688335 225.080167 
L 346.937612 228.113752 
L 345.10716 230.769041 
L 343.207583 233.046458 
L 341.249431 234.949459 
L 339.243118 236.484204 
L 337.198852 237.659224 
L 335.126571 238.485069 
L 333.035895 238.973968 
L 330.93608 239.139489 
L 328.835989 238.996226 
L 326.744062 238.559498 
L 324.668306 237.845085 
L 322.616278 236.868978 
L 320.59509 235.647175 
L 318.611407 234.195488 
L 316.671453 232.529396 
L 314.781027 230.663917 
L 312.945514 228.613506 
L 311.1699 226.391985 
L 309.458798 224.012482 
L 307.816459 221.487403 
L 306.246799 218.828414 
L 304.753415 216.046439 
L 303.339612 213.151672 
L 302.008414 210.153597 
L 300.762594 207.061022 
L 299.604685 203.882113 
L 297.561641 197.295025 
L 295.895416 190.446615 
L 294.619307 183.384064 
L 293.744127 176.149215 
L 293.278446 168.780391 
L 293.228745 161.314224 
L 293.599455 153.787494 
L 294.392897 146.238981 
L 295.60912 138.711354 
L 297.245625 131.253096 
L 299.296988 123.920469 
L 300.475627 120.321465 
L 301.754366 116.779498 
L 303.131466 113.304662 
L 304.604895 109.907899 
L 306.1723 106.60104 
L 307.830985 103.396856 
L 309.577883 100.309085 
L 311.409525 97.35246 
L 313.322018 94.542714 
L 315.311012 91.896572 
L 317.371677 89.431728 
L 319.498672 87.166787 
L 321.686123 85.121193 
L 323.927601 83.315116 
L 326.216104 81.769313 
L 328.544039 80.50495 
L 330.903219 79.543382 
L 333.284859 78.905897 
L 335.67958 78.613417 
L 338.077426 78.686157 
L 340.467891 79.143249 
L 342.839949 80.002326 
L 345.182108 81.279084 
L 347.482469 82.986819 
L 349.728799 85.13596 
L 351.908617 87.733598 
L 354.009297 90.783038 
L 356.018178 94.283384 
L 357.922687 98.229173 
L 359.710471 102.61008 
L 361.369539 107.410709 
L 362.888402 112.610483 
L 364.256221 118.183651 
L 365.462951 124.099422 
L 366.499477 130.322223 
L 367.357743 136.812097 
L 368.030868 143.525219 
L 368.51325 150.414533 
L 368.800638 157.430487 
L 368.890197 164.52185 
L 368.780544 171.636581 
L 368.471752 178.722722 
L 367.96534 185.729298 
L 367.264233 192.607174 
L 366.372696 199.309865 
L 365.296252 205.794256 
L 364.041579 212.02122 
L 362.616387 217.956119 
L 361.029294 223.569176 
L 359.289676 228.835715 
L 357.407533 233.736268 
L 355.393333 238.25656 
L 353.257877 242.387375 
L 351.012154 246.124326 
L 348.66721 249.46754 
L 346.234033 252.421268 
L 343.723435 254.993455 
L 341.145962 257.195278 
L 338.511804 259.040655 
L 335.830731 260.545771 
L 333.112031 261.728601 
L 330.36447 262.608464 
L 327.596258 263.205599 
L 324.815028 263.540784 
L 322.02783 263.634992 
L 319.241125 263.509086 
L 316.460793 263.183561 
L 313.69215 262.678329 
L 310.939962 262.012533 
L 308.208471 261.204416 
L 305.501423 260.271207 
L 300.173329 258.092963 
L 294.976849 255.593234 
L 289.927202 252.869015 
L 285.034673 249.999476 
L 278.003423 245.55573 
L 271.34826 241.074134 
L 263.05702 235.192154 
L 255.414951 229.501654 
L 248.399318 224.014326 
L 241.98902 218.695434 
L 237.568649 214.786487 
L 233.474889 210.924108 
L 229.704471 207.094059 
L 226.255004 203.290023 
L 223.124239 199.515128 
L 220.309238 195.782712 
L 217.805504 192.116466 
L 215.606127 188.550026 
L 213.129005 184.025029 
L 211.139338 179.876621 
L 209.260071 175.435923 
L 207.322497 170.755081 
L 206.805385 169.978905 
L 206.485758 169.807115 
L 206.167542 169.931218 
L 205.833713 170.366664 
L 205.264411 171.634565 
L 204.277763 174.537717 
L 200.917282 184.781303 
L 198.20435 192.206256 
L 195.576091 198.783782 
L 192.359185 206.201587 
L 188.484728 214.413552 
L 185.50466 220.292673 
L 182.186825 226.457783 
L 178.516374 232.864664 
L 174.481303 239.455546 
L 170.073298 246.155963 
L 165.28877 252.871186 
L 160.1301 259.48236 
L 157.413192 262.704219 
L 154.607096 265.842584 
L 151.714476 268.874129 
L 148.738676 271.773381 
L 145.683788 274.512674 
L 142.554708 277.062149 
L 139.3572 279.389782 
L 136.097956 281.461487 
L 132.78465 283.24127 
L 129.425987 284.691468 
L 126.031749 285.773069 
L 122.612827 286.446128 
L 119.181237 286.670291 
L 115.750124 286.405418 
L 112.333748 285.612321 
L 108.947444 284.253602 
L 105.607559 282.294594 
L 102.331363 279.704371 
L 99.136925 276.456832 
L 96.042968 272.531795 
L 93.068684 267.916096 
L 90.233522 262.604625 
L 87.556951 256.601268 
L 85.058198 249.919685 
L 82.75596 242.583894 
L 80.668112 234.628593 
L 78.811408 226.099187 
L 77.20118 217.051489 
L 75.851058 207.55108 
L 74.772709 197.672321 
L 73.975606 187.497042 
L 73.466843 177.11294 
L 73.250994 166.611745 
L 73.33003 156.087218 
L 73.70329 145.633071 
L 74.367508 135.340875 
L 75.31691 125.298067 
L 76.543346 115.586114 
L 78.03649 106.278916 
L 79.784062 97.441496 
L 81.772098 89.129023 
L 83.985233 81.386175 
L 86.407 74.246848 
L 89.020135 67.734198 
L 91.80687 61.860977 
L 94.749219 56.630123 
L 97.829243 52.035568 
L 101.029286 48.063184 
L 104.33219 44.691848 
L 107.721476 41.894553 
L 111.181489 39.639528 
L 114.697519 37.891334 
L 118.255888 36.611896 
L 121.844012 35.76146 
L 125.450434 35.299448 
L 129.064837 35.185203 
L 132.678039 35.378635 
L 136.281963 35.840747 
L 139.86961 36.534057 
L 143.435002 37.422933 
L 146.973133 38.473824 
L 153.952071 40.938769 
L 160.783387 43.706687 
L 186.528686 54.626576 
L 192.606992 56.795711 
L 198.573253 58.61791 
L 204.447802 60.064152 
L 210.252212 61.118561 
L 216.008639 61.775949 
L 221.739277 62.039949 
L 227.465897 61.921741 
L 233.209451 61.439331 
L 238.989696 60.617353 
L 244.824818 59.487363 
L 250.731021 58.088586 
L 256.722072 56.469062 
L 268.998278 52.813232 
L 278.480233 50.018649 
L 284.927803 48.318655 
L 291.463588 46.893964 
L 294.758823 46.329363 
L 298.068185 45.88924 
L 301.387898 45.594394 
L 304.713586 45.466569 
L 308.040253 45.528324 
L 311.362262 45.802856 
L 314.673319 46.313792 
L 317.966464 47.084928 
L 321.234071 48.139918 
L 324.467859 49.501926 
L 327.658906 51.193221 
L 330.797687 53.234734 
L 333.874113 55.645583 
L 336.87759 58.442556 
L 339.797093 61.63959 
L 342.621251 65.247237 
L 345.338454 69.272139 
L 347.936964 73.716544 
L 350.405047 78.57785 
L 352.731114 83.848239 
L 354.903874 89.514384 
L 356.912486 95.557273 
L 358.746725 101.95215 
L 360.397137 108.668599 
L 361.8552 115.670775 
L 363.113467 122.917781 
L 364.165702 130.364191 
L 365.006998 137.960714 
L 365.633877 145.654975 
L 366.044359 153.392394 
L 366.238015 161.11714 
L 366.215988 168.77312 
L 365.980983 176.30498 
L 365.537236 183.659074 
L 364.890452 190.784385 
L 364.047719 197.633345 
L 363.017401 204.162556 
L 361.809015 210.333376 
L 360.433086 216.112359 
L 358.901003 221.471552 
L 357.224857 226.388641 
L 355.417287 230.84696 
L 353.49132 234.835359 
L 351.460223 238.347972 
L 349.337356 241.383876 
L 347.136038 243.946683 
L 344.869433 246.044066 
L 342.550435 247.687257 
L 340.191582 248.890523 
L 337.804974 249.670641 
L 335.402214 250.046383 
L 332.994354 250.038036 
L 330.591862 249.666939 
L 328.204599 248.955079 
L 325.841804 247.924717 
L 323.512093 246.598069 
L 321.223463 244.99703 
L 318.983304 243.142949 
L 316.798418 241.056441 
L 314.67504 238.757249 
L 312.618866 236.264134 
L 310.635081 233.594807 
L 308.728389 230.765882 
L 306.903044 227.792863 
L 305.162879 224.690147 
L 303.511341 221.471045 
L 301.951518 218.147818 
L 300.486169 214.731729 
L 299.117749 211.233095 
L 297.848437 207.661354 
L 296.680161 204.025132 
L 295.614616 200.332314 
L 294.653284 196.590114 
L 293.797457 192.805153 
L 293.048246 188.983529 
L 292.406599 185.130887 
L 291.449031 177.353314 
L 290.929439 169.511261 
L 290.850419 161.640742 
L 291.212581 153.777035 
L 292.014527 145.956699 
L 293.25273 138.219559 
L 294.033686 134.396013 
L 294.921292 130.610689 
L 295.914383 126.870364 
L 297.011595 123.182394 
L 298.211351 119.554772 
L 299.51184 115.996184 
L 300.910995 112.516068 
L 302.406476 109.124668 
L 303.995643 105.83308 
L 305.675532 102.653294 
L 307.442831 99.598225 
L 309.293851 96.681736 
L 311.224504 93.918647 
L 313.230271 91.324723 
L 315.306177 88.916652 
L 317.446772 86.71199 
L 319.646096 84.729087 
L 321.89767 82.986986 
L 324.19447 81.505279 
L 326.528918 80.303944 
L 328.892875 79.403128 
L 331.277633 78.822907 
L 333.673931 78.582997 
L 336.071961 78.702429 
L 338.461396 79.199189 
L 340.831423 80.089824 
L 343.170793 81.389026 
L 345.467875 83.109189 
L 347.710725 85.259966 
L 349.887178 87.847822 
L 351.984932 90.875609 
L 353.991663 94.342172 
L 355.89514 98.241998 
L 357.683349 102.564937 
L 359.344631 107.295999 
L 360.867813 112.415249 
L 362.242352 117.897811 
L 363.45847 123.71398 
L 363.45847 123.71398 
" clip-path="url(#p5fc7d271a1)" style="fill: none; stroke: #00ff99; stroke-width: 0.8; stroke-linecap: square"/>
   </g>
   <g id="patch_3">
    <path d="M 58.032812 299.52 
L 58.032812 22.32 
" style="fill: none; stroke: #0e7a2f; stroke-width: 0.8; stroke-linejoin: miter; stroke-linecap: square"/>
   </g>
   <g id="patch_4">
    <path d="M 392.832812 299.52 
L 392.832812 22.32 
" style="fill: none; stroke: #0e7a2f; stroke-width: 0.8; stroke-linejoin: miter; stroke-linecap: square"/>
   </g>
   <g id="patch_5">
    <path d="M 58.032812 299.52 
L 392.832813 299.52 
" style="fill: none; stroke: #0e7a2f; stroke-width: 0.8; stroke-linejoin: miter; stroke-linecap: square"/>
   </g>
   <g id="patch_6">
    <path d="M 58.032812 22.32 
L 392.832813 22.32 
" style="fill: none; stroke: #0e7a2f; stroke-width: 0.8; stroke-linejoin: miter; stroke-linecap: square"/>
   </g>
   <g id="text_17">
    <!-- Duffing forzado: fase $(x,v)$ -->
    <g style="fill: #39ff14" transform="translate(126.672813 16.32)">
     <text>
      <tspan x="0" y="-0.875" style="font-size: 12px; font-family: 'DejaVu Sans Mono'; fill: #39ff14">D</tspan>
      <tspan x="7.224609" y="-0.875" style="font-size: 12px; font-family: 'DejaVu Sans Mono'; fill: #39ff14">u</tspan>
      <tspan x="14.449219" y="-0.875" style="font-size: 12px; font-family: 'DejaVu Sans Mono'; fill: #39ff14">f</tspan>
      <tspan x="21.673828" y="-0.875" style="font-size: 12px; font-family: 'DejaVu Sans Mono'; fill: #39ff14">f</tspan>
      <tspan x="28.898438" y="-0.875" style="font-size: 12px; font-family: 'DejaVu Sans Mono'; fill: #39ff14">i</tspan>
      <tspan x="36.123047" y="-0.875" style="font-size: 12px; font-family: 'DejaVu Sans Mono'; fill: #39ff14">n</tspan>
      <tspan x="43.347656" y="-0.875" style="font-size: 12px; font-family: 'DejaVu Sans Mono'; fill: #39ff14">g</tspan>
      <tspan x="50.572266" y="-0.875" style="font-size: 12px; font-family: 'DejaVu Sans Mono'; fill: #39ff14"> </tspan>
      <tspan x="57.796875" y="-0.875" style="font-size: 12px; font-family: 'DejaVu Sans Mono'; fill: #39ff14">f</tspan>
      <tspan x="65.021484" y="-0.875" style="font-size: 12px; font-family: 'DejaVu Sans Mono'; fill: #39ff14">o</tspan>
      <tspan x="72.246094" y="-0.875" style="font-size: 12px; font-family: 'DejaVu Sans Mono'; fill: #39ff14">r</tspan>
      <tspan x="79.470703" y="-0.875" style="font-size: 12px; font-family: 'DejaVu Sans Mono'; fill: #39ff14">z</tspan>
      <tspan x="86.695312" y="-0.875" style="font-size: 12px; font-family: 'DejaVu Sans Mono'; fill: #39ff14">a</tspan>
      <tspan x="93.919922" y="-0.875" style="font-size: 12px; font-family: 'DejaVu Sans Mono'; fill: #39ff14">d</tspan>
      <tspan x="101.144531" y="-0.875" style="font-size: 12px; font-family: 'DejaVu Sans Mono'; fill: #39ff14">o</tspan>
      <tspan x="108.369141" y="-0.875" style="font-size: 12px; font-family: 'DejaVu Sans Mono'; fill: #39ff14">:</tspan>
      <tspan x="115.59375" y="-0.875" style="font-size: 12px; font-family: 'DejaVu Sans Mono'; fill: #39ff14"> </tspan>
      <tspan x="122.818359" y="-0.875" style="font-size: 12px; font-family: 'DejaVu Sans Mono'; fill: #39ff14">f</tspan>
      <tspan x="130.042969" y="-0.875" style="font-size: 12px; font-family: 'DejaVu Sans Mono'; fill: #39ff14">a</tspan>
      <tspan x="137.267578" y="-0.875" style="font-size: 12px; font-family: 'DejaVu Sans Mono'; fill: #39ff14">s</tspan>
      <tspan x="144.492188" y="-0.875" style="font-size: 12px; font-family: 'DejaVu Sans Mono'; fill: #39ff14">e</tspan>
      <tspan x="151.716797" y="-0.875" style="font-size: 12px; font-family: 'DejaVu Sans Mono'; fill: #39ff14"> </tspan>
      <tspan x="158.941406" y="-0.875" style="font-size: 12px; font-family: 'DejaVu Sans Mono'; fill: #39ff14">(</tspan>
      <tspan x="166.166016" y="-0.875" style="font-size: 12px; font-family: 'DejaVu Sans Mono'; fill: #39ff14">x</tspan>
      <tspan x="173.390625" y="-0.875" style="font-size: 12px; font-family: 'DejaVu Sans Mono'; fill: #39ff14">,</tspan>
      <tspan x="182.953125" y="-0.875" style="font-size: 12px; font-family: 'DejaVu Sans Mono'; fill: #39ff14">v</tspan>
      <tspan x="190.177734" y="-0.875" style="font-size: 12px; font-family: 'DejaVu Sans Mono'; fill: #39ff14">)</tspan>
     </text>
    </g>
   </g>
  </g>
 </g>
 <defs>
  <clipPath id="p5fc7d271a1">
   <rect x="58.032812" y="22.32" width="334.8" height="277.2"/>
  </clipPath>
 </defs>
</svg>
