<?xml version="1.0" encoding="utf-8" standalone="no"?>
<!DOCTYPE svg PUBLIC "-//W3C//DTD SVG 1.1//EN"
  "http://www.w3.org/Graphics/SVG/1.1/DTD/svg11.dtd">
<svg xmlns:xlink="http://www.w3.org/1999/xlink" width="394.0125pt" height="170.868933pt" viewBox="0 0 394.0125 170.868933" xmlns="http://www.w3.org/2000/svg" version="1.1">
 <metadata>
  <rdf:RDF xmlns:dc="http://purl.org/dc/elements/1.1/" xmlns:cc="http://creativecommons.org/ns#" xmlns:rdf="http://www.w3.org/1999/02/22-rdf-syntax-ns#">
   <cc:Work>
    <dc:type rdf:resource="http://purl.org/dc/dcmitype/StillImage"/>
    <dc:date>2026-06-25T02:40:42.827737</dc:date>
    <dc:format>image/svg+xml</dc:format>
    <dc:creator>
     <cc:Agent>
      <dc:title>Matplotlib v3.10.8, https://matplotlib.org/</dc:title>
     </cc:Agent>
    </dc:creator>
   </cc:Work>
  </rdf:RDF>
 </metadata>
 <defs>
  <style type="text/css">*{stroke-linejoin: round; stroke-linecap: butt}</style>
 </defs>
 <g id="figure_1">
  <g id="patch_1">
   <path d="M 0 170.868933 
L 394.0125 170.868933 
L 394.0125 -0 
L 0 -0 
z
" style="fill: #020804"/>
  </g>
  <g id="axes_1">
   <g id="patch_2">
    <path d="M 52.0125 133.206433 
L 386.8125 133.206433 
L 386.8125 22.318125 
L 52.0125 22.318125 
z
" style="fill: #020804"/>
   </g>
   <g id="PathCollection_1">
    <defs>
     <path id="C0_0_177da01560" d="M 0 2.5 
C 0.663008 2.5 1.29895 2.236584 1.767767 1.767767 
C 2.236584 1.29895 2.5 0.663008 2.5 -0 
C 2.5 -0.663008 2.236584 -1.29895 1.767767 -1.767767 
C 1.29895 -2.236584 0.663008 -2.5 0 -2.5 
C -0.663008 -2.5 -1.29895 -2.236584 -1.767767 -1.767767 
C -2.236584 -1.29895 -2.5 -0.663008 -2.5 0 
C -2.5 0.663008 -2.236584 1.29895 -1.767767 1.767767 
C -1.29895 2.236584 -0.663008 2.5 0 2.5 
z
"/>
    </defs>
    <g clip-path="url(#p4e3e896162)">
     <use xlink:href="#C0_0_177da01560" x="82.858625" y="43.541147" style="fill: #39ff14; stroke: #39ff14"/>
    </g>
    <g clip-path="url(#p4e3e896162)">
     <use xlink:href="#C0_0_177da01560" x="355.966754" y="111.983294" style="fill: #00ff99; stroke: #00ff99"/>
    </g>
    <g clip-path="url(#p4e3e896162)">
     <use xlink:href="#C0_0_177da01560" x="219.412689" y="77.762221" style="fill: #b6ff00; stroke: #b6ff00"/>
    </g>
   </g>
   <g id="matplotlib.axis_1">
    <g id="xtick_1">
     <g id="line2d_1">
      <path d="M 78.635936 133.206433 
L 78.635936 22.318125 
" clip-path="url(#p4e3e896162)" style="fill: none; stroke-dasharray: 0.8,1.32; stroke-dashoffset: 0; stroke: #0b3d1e; stroke-width: 0.8"/>
     </g>
     <g id="line2d_2">
      <defs>
       <path id="m8a7ec7b2b5" d="M 0 0 
L 0 3.5 
" style="stroke: #39ff14; stroke-width: 0.8"/>
      </defs>
      <g>
       <use xlink:href="#m8a7ec7b2b5" x="78.635936" y="133.206433" style="fill: #39ff14; stroke: #39ff14; stroke-width: 0.8"/>
      </g>
     </g>
     <g id="text_1">
      <text style="font-size: 10px; font-family: 'DejaVu Sans Mono', 'Bitstream Vera Sans Mono', 'Computer Modern Typewriter', 'Andale Mono', 'Nimbus Mono L', 'Courier New', 'Courier', 'Fixed', 'Terminal', monospace; text-anchor: middle; fill: #39ff14" x="78.635936" y="147.857995" transform="rotate(-0 78.635936 147.857995)">−1.0</text>
     </g>
    </g>
    <g id="xtick_2">
     <g id="line2d_3">
      <path d="M 149.024313 133.206433 
L 149.024313 22.318125 
" clip-path="url(#p4e3e896162)" style="fill: none; stroke-dasharray: 0.8,1.32; stroke-dashoffset: 0; stroke: #0b3d1e; stroke-width: 0.8"/>
     </g>
     <g id="line2d_4">
      <g>
       <use xlink:href="#m8a7ec7b2b5" x="149.024313" y="133.206433" style="fill: #39ff14; stroke: #39ff14; stroke-width: 0.8"/>
      </g>
     </g>
     <g id="text_2">
      <text style="font-size: 10px; font-family: 'DejaVu Sans Mono', 'Bitstream Vera Sans Mono', 'Computer Modern Typewriter', 'Andale Mono', 'Nimbus Mono L', 'Courier New', 'Courier', 'Fixed', 'Terminal', monospace; text-anchor: middle; fill: #39ff14" x="149.024313" y="147.857995" transform="rotate(-0 149.024313 147.857995)">−0.5</text>
     </g>
    </g>
    <g id="xtick_3">
     <g id="line2d_5">
      <path d="M 219.412689 133.206433 
L 219.412689 22.318125 
" clip-path="url(#p4e3e896162)" style="fill: none; stroke-dasharray: 0.8,1.32; stroke-dashoffset: 0; stroke: #0b3d1e; stroke-width: 0.8"/>
     </g>
     <g id="line2d_6">
      <g>
       <use xlink:href="#m8a7ec7b2b5" x="219.412689" y="133.206433" style="fill: #39ff14; stroke: #39ff14; stroke-width: 0.8"/>
      </g>
     </g>
     <g id="text_3">
      <text style="font-size: 10px; font-family: 'DejaVu Sans Mono', 'Bitstream Vera Sans Mono', 'Computer Modern Typewriter', 'Andale Mono', 'Nimbus Mono L', 'Courier New', 'Courier', 'Fixed', 'Terminal', monospace; text-anchor: middle; fill: #39ff14" x="219.412689" y="147.857995" transform="rotate(-0 219.412689 147.857995)">0.0</text>
     </g>
    </g>
    <g id="xtick_4">
     <g id="line2d_7">
      <path d="M 289.801066 133.206433 
L 289.801066 22.318125 
" clip-path="url(#p4e3e896162)" style="fill: none; stroke-dasharray: 0.8,1.32; stroke-dashoffset: 0; stroke: #0b3d1e; stroke-width: 0.8"/>
     </g>
     <g id="line2d_8">
      <g>
       <use xlink:href="#m8a7ec7b2b5" x="289.801066" y="133.206433" style="fill: #39ff14; stroke: #39ff14; stroke-width: 0.8"/>
      </g>
     </g>
     <g id="text_4">
      <text style="font-size: 10px; font-family: 'DejaVu Sans Mono', 'Bitstream Vera Sans Mono', 'Computer Modern Typewriter', 'Andale Mono', 'Nimbus Mono L', 'Courier New', 'Courier', 'Fixed', 'Terminal', monospace; text-anchor: middle; fill: #39ff14" x="289.801066" y="147.857995" transform="rotate(-0 289.801066 147.857995)">0.5</text>
     </g>
    </g>
    <g id="xtick_5">
     <g id="line2d_9">
      <path d="M 360.189443 133.206433 
L 360.189443 22.318125 
" clip-path="url(#p4e3e896162)" style="fill: none; stroke-dasharray: 0.8,1.32; stroke-dashoffset: 0; stroke: #0b3d1e; stroke-width: 0.8"/>
     </g>
     <g id="line2d_10">
      <g>
       <use xlink:href="#m8a7ec7b2b5" x="360.189443" y="133.206433" style="fill: #39ff14; stroke: #39ff14; stroke-width: 0.8"/>
      </g>
     </g>
     <g id="text_5">
      <text style="font-size: 10px; font-family: 'DejaVu Sans Mono', 'Bitstream Vera Sans Mono', 'Computer Modern Typewriter', 'Andale Mono', 'Nimbus Mono L', 'Courier New', 'Courier', 'Fixed', 'Terminal', monospace; text-anchor: middle; fill: #39ff14" x="360.189443" y="147.857995" transform="rotate(-0 360.189443 147.857995)">1.0</text>
     </g>
    </g>
    <g id="text_6">
     <text style="font-size: 10px; font-family: 'DejaVu Sans Mono', 'Bitstream Vera Sans Mono', 'Computer Modern Typewriter', 'Andale Mono', 'Nimbus Mono L', 'Courier New', 'Courier', 'Fixed', 'Terminal', monospace; text-anchor: middle; fill: #39ff14" x="219.4125" y="161.589245" transform="rotate(-0 219.4125 161.589245)">x</text>
    </g>
   </g>
   <g id="matplotlib.axis_2">
    <g id="ytick_1">
     <g id="line2d_11">
      <path d="M 52.0125 105.917571 
L 386.8125 105.917571 
" clip-path="url(#p4e3e896162)" style="fill: none; stroke-dasharray: 0.8,1.32; stroke-dashoffset: 0; stroke: #0b3d1e; stroke-width: 0.8"/>
     </g>
     <g id="line2d_12">
      <defs>
       <path id="mf1ff98f519" d="M 0 0 
L -3.5 0 
" style="stroke: #39ff14; stroke-width: 0.8"/>
      </defs>
      <g>
       <use xlink:href="#mf1ff98f519" x="52.0125" y="105.917571" style="fill: #39ff14; stroke: #39ff14; stroke-width: 0.8"/>
      </g>
     </g>
     <g id="text_7">
      <text style="font-size: 10px; font-family: 'DejaVu Sans Mono', 'Bitstream Vera Sans Mono', 'Computer Modern Typewriter', 'Andale Mono', 'Nimbus Mono L', 'Courier New', 'Courier', 'Fixed', 'Terminal', monospace; text-anchor: end; fill: #39ff14" x="45.0125" y="109.743353" transform="rotate(-0 45.0125 109.743353)">−0.2</text>
     </g>
    </g>
    <g id="ytick_2">
     <g id="line2d_13">
      <path d="M 52.0125 77.762221 
L 386.8125 77.762221 
" clip-path="url(#p4e3e896162)" style="fill: none; stroke-dasharray: 0.8,1.32; stroke-dashoffset: 0; stroke: #0b3d1e; stroke-width: 0.8"/>
     </g>
     <g id="line2d_14">
      <g>
       <use xlink:href="#mf1ff98f519" x="52.0125" y="77.762221" style="fill: #39ff14; stroke: #39ff14; stroke-width: 0.8"/>
      </g>
     </g>
     <g id="text_8">
      <text style="font-size: 10px; font-family: 'DejaVu Sans Mono', 'Bitstream Vera Sans Mono', 'Computer Modern Typewriter', 'Andale Mono', 'Nimbus Mono L', 'Courier New', 'Courier', 'Fixed', 'Terminal', monospace; text-anchor: end; fill: #39ff14" x="45.0125" y="81.588002" transform="rotate(-0 45.0125 81.588002)">0.0</text>
     </g>
    </g>
    <g id="ytick_3">
     <g id="line2d_15">
      <path d="M 52.0125 49.60687 
L 386.8125 49.60687 
" clip-path="url(#p4e3e896162)" style="fill: none; stroke-dasharray: 0.8,1.32; stroke-dashoffset: 0; stroke: #0b3d1e; stroke-width: 0.8"/>
     </g>
     <g id="line2d_16">
      <g>
       <use xlink:href="#mf1ff98f519" x="52.0125" y="49.60687" style="fill: #39ff14; stroke: #39ff14; stroke-width: 0.8"/>
      </g>
     </g>
     <g id="text_9">
      <text style="font-size: 10px; font-family: 'DejaVu Sans Mono', 'Bitstream Vera Sans Mono', 'Computer Modern Typewriter', 'Andale Mono', 'Nimbus Mono L', 'Courier New', 'Courier', 'Fixed', 'Terminal', monospace; text-anchor: end; fill: #39ff14" x="45.0125" y="53.432651" transform="rotate(-0 45.0125 53.432651)">0.2</text>
     </g>
    </g>
    <g id="text_10">
     <text style="font-size: 10px; font-family: 'DejaVu Sans Mono', 'Bitstream Vera Sans Mono', 'Computer Modern Typewriter', 'Andale Mono', 'Nimbus Mono L', 'Courier New', 'Courier', 'Fixed', 'Terminal', monospace; text-anchor: middle; fill: #39ff14" x="14.851563" y="77.762279" transform="rotate(-90 14.851563 77.762279)">y</text>
    </g>
   </g>
   <g id="line2d_17">
    <path d="M 82.858625 43.541147 
L 85.332981 41.380609 
L 88.038971 39.290435 
L 90.986607 37.288015 
L 94.184856 35.393557 
L 97.641016 33.630193 
L 101.359987 32.023945 
L 105.343439 30.603509 
L 109.588935 29.39978 
L 114.089072 28.445083 
L 118.830755 27.772057 
L 123.79473 27.412218 
L 128.955525 27.394257 
L 134.281927 27.742229 
L 139.738052 28.473835 
L 145.284974 29.599033 
L 150.882772 31.1192 
L 156.492766 33.026986 
L 162.07964 35.306871 
L 167.613221 37.936319 
L 173.069722 40.887339 
L 178.43239 44.12818 
L 183.69159 47.624975 
L 188.844436 51.343134 
L 193.894113 55.248414 
L 198.849009 59.307628 
L 206.132291 65.61601 
L 215.655563 74.281717 
L 232.261393 89.52396 
L 239.535295 95.845556 
L 244.482237 99.917026 
L 249.522982 103.837478 
L 254.666342 107.573844 
L 259.916006 111.091949 
L 265.269665 114.357199 
L 270.718311 117.335606 
L 276.245836 119.995169 
L 281.829067 122.307484 
L 287.438361 124.249461 
L 293.038803 125.804893 
L 298.591926 126.965662 
L 304.057834 127.732358 
L 309.397421 128.114191 
L 314.574454 128.128217 
L 319.55725 127.797986 
L 324.319792 127.151848 
L 328.842263 126.221137 
L 333.111027 125.038453 
L 337.118197 123.636202 
L 340.860924 122.045443 
L 344.340546 120.295094 
L 347.561705 118.411428 
L 350.531518 116.417841 
L 353.258828 114.334802 
L 355.753575 112.179946 
L 358.026282 109.96826 
L 360.087638 107.712307 
L 361.948188 105.422487 
L 363.61809 103.107293 
L 365.106946 100.773558 
L 366.423674 98.426692 
L 368.09363 94.890667 
L 369.418435 91.344338 
L 370.417686 87.793818 
L 371.106469 84.242357 
L 371.495334 80.691224 
L 371.590288 77.140475 
L 371.392803 73.589633 
L 370.899819 70.038332 
L 370.10374 66.486972 
L 368.992425 62.937423 
L 367.549202 59.39383 
L 366.392395 57.038212 
L 365.071413 54.691622 
L 363.578087 52.358285 
L 361.903479 50.043642 
L 360.037973 47.754567 
L 357.971397 45.499598 
L 355.693201 43.289185 
L 353.192694 41.135952 
L 350.459365 39.054948 
L 347.483292 37.063879 
L 344.255668 35.183288 
L 340.76943 33.436643 
L 337.020009 31.850289 
L 333.006161 30.453205 
L 328.730854 29.276498 
L 324.202112 28.352591 
L 319.433723 27.714073 
L 314.445663 27.392224 
L 309.264101 27.415294 
L 303.920853 27.806691 
L 298.452247 28.583285 
L 292.897434 29.754076 
L 287.296305 31.319431 
L 281.687258 33.271015 
L 276.105098 35.592432 
L 270.579313 38.260436 
L 265.132902 41.246512 
L 259.781794 44.518587 
L 254.534821 48.042645 
L 249.394127 51.784089 
L 244.355885 55.708767 
L 239.411165 59.783644 
L 232.139868 66.108896 
L 222.624978 74.78554 
L 208.407462 87.87121 
L 201.17136 94.245325 
L 196.257248 98.366398 
L 191.253892 102.348804 
L 186.150756 106.160003 
L 180.942071 109.766188 
L 175.627743 113.132822 
L 170.214134 116.225539 
L 164.714599 119.011393 
L 159.149629 121.460393 
L 153.546486 123.547205 
L 147.938235 125.252807 
L 142.36221 126.565858 
L 136.85802 127.483568 
L 131.465336 128.011885 
L 126.221721 128.164979 
L 121.160773 127.964087 
L 116.310786 127.435928 
L 111.693988 126.610898 
L 107.326361 125.521301 
L 103.217932 124.19977 
L 99.373394 122.677997 
L 95.792915 120.985797 
L 92.473021 119.150504 
L 89.407455 117.196634 
L 86.587958 115.145778 
L 84.004942 113.016644 
L 81.648056 110.825212 
L 79.506632 108.58495 
L 77.570038 106.307059 
L 75.827943 104.000735 
L 74.270513 101.673421 
L 72.888557 99.33105 
L 71.126361 95.799103 
L 69.715058 92.254697 
L 68.633909 88.704845 
L 67.866666 85.153439 
L 67.401615 81.602181 
L 67.231582 78.051369 
L 67.353935 74.500601 
L 67.770568 70.949422 
L 68.487915 67.39797 
L 69.51695 63.847668 
L 70.873186 60.301992 
L 72.576635 56.767376 
L 73.917037 54.422076 
L 75.430776 52.09059 
L 77.126872 49.778512 
L 79.015012 47.492897 
L 81.105422 45.242489 
L 83.408681 43.037976 
L 85.935478 40.892248 
L 88.69628 38.820649 
L 91.700907 36.841204 
L 94.958001 34.97479 
L 98.474378 33.245213 
L 102.254267 31.679139 
L 106.298472 30.305822 
L 110.603485 29.156568 
L 115.16065 28.263885 
L 119.95548 27.660291 
L 124.967277 27.37681 
L 130.169183 27.441225 
L 135.528793 27.876272 
L 141.009358 28.697974 
L 146.57153 29.914364 
L 152.175478 31.524794 
L 157.783114 33.519957 
L 163.360169 35.882597 
L 168.877851 38.588776 
L 174.31396 41.609481 
L 179.653391 44.912338 
L 184.888111 48.4632 
L 190.016703 52.227474 
L 195.04363 56.171112 
L 199.978349 60.261232 
L 207.238 66.602764 
L 216.745047 75.289607 
L 230.968951 88.367013 
L 238.21596 94.726093 
L 243.139684 98.832804 
L 248.154079 102.797173 
L 253.269179 106.5865 
L 258.490144 110.166857 
L 263.816361 113.503675 
L 269.240684 116.562683 
L 274.748935 119.311189 
L 280.319812 121.719654 
L 285.925325 123.763389 
L 291.531828 125.424194 
L 297.101619 126.691682 
L 302.594965 127.564071 
L 307.972331 128.048298 
L 313.196527 128.159414 
L 318.234505 127.919377 
L 323.058645 127.355421 
L 327.647439 126.49825 
L 331.985612 125.380281 
L 336.063789 124.034098 
L 338.003905 123.285343 
L 338.003905 123.285343 
" clip-path="url(#p4e3e896162)" style="fill: none; stroke: #39ff14; stroke-linecap: square"/>
   </g>
   <g id="line2d_18">
    <path d="M 355.966754 111.983294 
L 358.220029 109.767149 
L 360.262911 107.507757 
L 362.105918 105.215336 
L 363.759166 102.898219 
L 365.232199 100.563102 
L 366.533868 98.215278 
L 368.182511 94.678398 
L 369.487303 91.131678 
L 370.467572 87.581035 
L 371.138134 84.029573 
L 371.509265 80.47847 
L 371.586701 76.927731 
L 371.371642 73.376867 
L 370.860757 69.82554 
L 370.046177 66.274217 
L 368.91549 62.724882 
L 367.451753 59.181842 
L 366.280504 56.82689 
L 364.94438 54.481302 
L 363.435137 52.149402 
L 361.743775 49.836753 
L 359.860621 47.550368 
L 357.775462 45.298945 
L 355.477723 43.093121 
L 352.956716 40.945726 
L 350.201964 38.87204 
L 347.203623 36.890017 
L 343.953014 35.02046 
L 340.443267 33.287102 
L 336.670075 31.716537 
L 332.632538 30.337961 
L 328.334045 29.182636 
L 323.783111 28.283053 
L 318.994069 27.671748 
L 313.987459 27.379802 
L 308.789987 27.435103 
L 303.433932 27.860538 
L 297.95595 28.672316 
L 292.39535 29.878684 
L 286.791979 31.479217 
L 281.183993 33.464822 
L 275.605783 35.818429 
L 270.086294 38.51625 
L 264.647904 41.529381 
L 259.305897 44.825511 
L 254.068481 48.370521 
L 248.937234 52.129817 
L 243.907832 56.069325 
L 238.97093 60.15613 
L 231.708748 66.494135 
L 222.200024 75.178799 
L 207.977595 88.258115 
L 200.733013 94.620549 
L 195.811418 98.730452 
L 190.799461 102.698822 
L 185.686997 106.492995 
L 180.468731 110.079068 
L 175.145119 113.422479 
L 169.723135 116.488933 
L 164.216775 119.245681 
L 158.647165 121.663084 
L 153.042135 123.716308 
L 147.435204 125.386971 
L 141.863998 126.664476 
L 136.368224 127.546818 
L 130.987448 128.040719 
L 125.758946 128.161036 
L 120.715888 127.929572 
L 115.886042 127.373448 
L 111.291075 126.523305 
L 106.946418 125.411534 
L 102.861587 124.070733 
L 99.040834 122.532457 
L 95.483964 120.82632 
L 92.187218 118.97941 
L 89.14413 117.015984 
L 86.346292 114.957369 
L 83.78403 112.822022 
L 81.446946 110.625687 
L 79.324363 108.381616 
L 77.405666 106.100821 
L 75.680561 103.79233 
L 74.139267 101.463442 
L 72.772656 99.119962 
L 71.032148 95.587 
L 69.641166 92.042106 
L 68.579238 88.492077 
L 67.830385 84.94065 
L 67.383166 81.38942 
L 67.230682 77.838626 
L 67.370567 74.287843 
L 67.804992 70.736634 
L 68.54066 67.185195 
L 69.588817 63.635047 
L 70.965248 60.089818 
L 72.690232 56.556151 
L 74.045863 54.211897 
L 75.575612 51.881906 
L 77.288562 49.571896 
L 79.194456 47.28906 
L 81.303559 45.042309 
L 83.626472 42.842517 
L 86.173878 40.702785 
L 88.956205 38.63869 
L 91.983191 36.668506 
L 95.263341 34.813373 
L 98.803272 33.09736 
L 102.606941 31.547378 
L 106.6748 30.192892 
L 111.002911 29.065358 
L 115.582119 28.197337 
L 120.397389 27.621279 
L 125.427458 27.367991 
L 130.644937 27.464874 
L 136.016973 27.934127 
L 141.506505 28.791099 
L 147.07405 30.043059 
L 152.679844 31.688572 
L 158.286062 33.717577 
L 163.858867 36.112159 
L 169.370022 38.847853 
L 174.797953 41.895277 
L 180.128199 45.221835 
L 185.353346 48.793289 
L 190.472538 52.575062 
L 195.490724 56.533188 
L 202.851301 62.72979 
L 210.056844 69.145532 
L 224.260197 82.249471 
L 233.801834 90.891086 
L 241.11008 97.163937 
L 246.085829 101.190559 
L 251.158704 105.055719 
L 256.335978 108.725942 
L 261.619507 112.166831 
L 267.004902 115.343853 
L 272.480907 118.223494 
L 278.029121 120.77472 
L 283.624208 122.970646 
L 289.234677 124.790226 
L 294.824265 126.219739 
L 300.353806 127.25382 
L 305.783417 127.895862 
L 311.074701 128.157704 
L 316.192723 128.05865 
L 321.107522 127.623984 
L 325.795036 126.883206 
L 330.237453 125.868234 
L 334.423042 124.611751 
L 338.345615 123.145838 
L 342.00376 121.500941 
L 345.399968 119.705172 
L 348.539762 117.783898 
L 351.430885 115.759574 
L 354.082597 113.651747 
L 356.505074 111.477181 
L 358.708933 109.25006 
L 360.704847 106.982225 
L 362.503259 104.683439 
L 364.114166 102.361636 
L 365.546962 100.023169 
L 367.38097 96.49484 
L 368.85949 92.952214 
L 370.004129 89.403041 
L 370.832026 85.851749 
L 371.355786 82.300404 
L 371.583475 78.749524 
L 371.51862 75.198791 
L 371.160215 71.64771 
L 370.502719 68.09625 
L 369.536051 64.545524 
L 368.245591 60.998537 
L 366.612204 57.461064 
L 365.321312 55.112572 
L 363.859601 52.776489 
L 362.218268 50.458024 
L 360.387811 48.163775 
L 358.358147 45.901964 
L 356.118776 43.682678 
L 353.659014 41.518132 
L 350.968288 39.42292 
L 348.036536 37.414255 
L 344.854708 35.512161 
L 341.415375 33.739578 
L 337.71346 32.122348 
L 333.747056 30.689004 
L 329.518311 29.470319 
L 325.034281 28.498557 
L 320.307677 27.806376 
L 315.357349 27.425413 
L 310.208375 27.384596 
L 304.891623 27.708334 
L 299.442719 28.414785 
L 293.900453 29.514438 
L 288.304746 31.009238 
L 282.694427 32.892387 
L 277.105087 35.148863 
L 271.567274 37.756541 
L 266.105214 40.687728 
L 260.736123 43.910867 
L 255.470087 47.392182 
L 250.31041 51.097093 
L 247.769792 53.022647 
L 247.769792 53.022647 
" clip-path="url(#p4e3e896162)" style="fill: none; stroke: #00ff99; stroke-linecap: square"/>
   </g>
   <g id="line2d_19">
    <path d="M 219.412689 77.762221 
L 207.547321 88.644488 
L 200.294046 94.994887 
L 195.364853 99.093367 
L 190.344213 103.047439 
L 185.222377 106.824311 
L 179.994533 110.389992 
L 174.661693 113.709901 
L 169.231447 116.749826 
L 163.718435 119.477229 
L 158.144409 121.862833 
L 152.537764 123.88232 
L 146.932459 125.517958 
L 141.366394 126.759899 
L 135.879356 127.606929 
L 130.510791 128.066533 
L 125.297671 128.154252 
L 120.272727 127.892435 
L 115.463198 127.308596 
L 110.890188 126.433601 
L 106.568576 125.299921 
L 102.507377 123.940105 
L 98.710407 122.385566 
L 95.177115 120.665709 
L 91.903465 118.807379 
L 88.882785 116.834569 
L 86.106529 114.768345 
L 83.564937 112.626912 
L 81.247569 110.42578 
L 79.143741 108.177989 
L 77.242857 105.894363 
L 75.534662 103.583765 
L 74.009431 101.253348 
L 72.658097 98.908796 
L 70.939188 95.374858 
L 69.568453 91.8295 
L 68.525688 88.279308 
L 67.795185 84.727864 
L 67.365775 81.176664 
L 67.230829 77.625885 
L 67.388256 74.075087 
L 67.840496 70.523849 
L 68.594524 66.972427 
L 69.661861 63.422446 
L 71.05856 59.877688 
L 72.182637 57.520644 
L 73.469312 55.171894 
L 74.926593 52.835438 
L 76.563264 50.516452 
L 78.38881 48.221497 
L 80.413303 45.958748 
L 82.647233 43.738245 
L 85.101284 41.572143 
L 87.786036 39.474974 
L 90.711568 37.463883 
L 93.886964 35.55882 
L 97.319704 33.782652 
L 101.014933 32.161148 
L 104.974647 30.722776 
L 109.196816 29.498263 
L 113.674514 28.519845 
L 118.395183 27.820188 
L 123.340131 27.430974 
L 128.484433 27.381221 
L 133.797361 27.695476 
L 139.243387 28.392073 
L 144.783782 29.481711 
L 150.378624 30.966554 
L 155.98903 32.840024 
L 161.579303 35.087294 
L 167.118748 37.686402 
L 172.582968 40.609776 
L 177.954568 43.825934 
L 183.223281 47.301138 
L 188.38564 51.000814 
L 193.444316 54.890654 
L 198.40727 58.937355 
L 205.700134 65.232161 
L 215.230318 73.888822 
L 231.830148 89.138885 
L 239.094876 95.473334 
L 244.033969 99.556805 
L 249.065854 103.492163 
L 254.199759 107.246457 
L 259.439868 110.785594 
L 264.784446 114.074976 
L 270.225108 117.080512 
L 275.746389 119.769957 
L 281.325736 122.114516 
L 286.934049 124.090551 
L 292.53682 125.681182 
L 298.095823 126.877528 
L 303.571196 127.679388 
L 308.923673 128.095221 
L 314.116689 128.141424 
L 319.118095 127.841032 
L 323.901336 127.222036 
L 328.446031 126.315574 
L 332.737999 125.154199 
L 336.768866 123.770383 
L 340.53536 122.195348 
L 344.038481 120.458225 
L 347.28261 118.58554 
L 350.274671 116.600952 
L 353.023381 114.525189 
L 355.538604 112.376138 
L 357.830829 110.169011 
L 359.910745 107.91658 
L 361.788919 105.62943 
L 363.475554 103.316214 
L 364.980305 100.983905 
L 366.312158 98.638031 
L 368.003512 95.102897 
L 369.348401 91.556979 
L 370.366687 88.006595 
L 371.07373 84.455139 
L 371.480351 80.903976 
L 371.592827 77.353216 
L 371.412905 73.802393 
L 370.937795 70.251119 
L 370.160172 66.699728 
L 369.06817 63.149981 
L 367.645385 59.605861 
L 366.50296 57.249602 
L 365.197056 54.902045 
L 363.719573 52.567313 
L 362.061641 50.250732 
L 360.2137 47.959037 
L 358.165623 45.700605 
L 355.906883 43.485706 
L 353.426791 41.326757 
L 350.714804 39.238578 
L 347.760928 37.238629 
L 344.556232 35.347192 
L 341.093466 33.587473 
L 337.367804 31.985565 
L 333.377669 30.570226 
L 329.125613 29.372399 
L 324.619173 28.424432 
L 319.871598 27.758954 
L 314.902301 27.407432 
L 309.736906 27.398462 
L 304.406759 27.755958 
L 298.947847 28.497441 
L 293.399146 29.632658 
L 287.800571 31.162766 
L 282.190745 33.080197 
L 276.604873 35.369235 
L 271.072979 38.00719 
L 265.618677 40.965951 
L 260.258539 44.213695 
L 255.002023 47.716522 
L 249.851852 51.439838 
L 244.804698 55.349419 
L 239.852053 59.412111 
L 232.571434 65.724252 
L 223.05005 74.392426 
L 206.442424 89.632326 
L 199.165901 95.950236 
L 194.216728 100.018279 
L 189.173475 103.934485 
L 184.027445 107.66575 
L 178.775093 111.17788 
L 173.418888 114.436282 
L 167.968016 117.407 
L 162.438766 120.058103 
L 156.854484 122.361301 
L 151.244964 124.293659 
L 145.645235 125.839164 
L 140.093826 126.989912 
L 134.630642 127.746716 
L 129.294739 128.118996 
L 124.122254 128.123991 
L 119.144739 127.785396 
L 114.388057 127.131658 
L 109.871867 126.194163 
L 105.609651 125.005524 
L 101.609161 123.598124 
L 97.873127 122.002979 
L 94.400118 120.248942 
L 91.185418 118.362217 
L 88.22186 116.366125 
L 85.500565 114.281061 
L 83.01157 112.124593 
L 80.744346 109.91164 
L 78.688203 107.65471 
L 76.832603 105.36415 
L 75.1674 103.048409 
L 73.683009 100.71428 
L 72.37053 98.367141 
L 70.706587 94.830871 
L 69.387426 91.28443 
L 68.393528 87.733874 
L 67.709881 84.182412 
L 67.326014 80.631288 
L 67.235996 77.080542 
L 67.43843 73.529694 
L 67.936454 69.978385 
L 68.737741 66.427035 
L 69.854507 62.877545 
L 71.303501 59.334105 
L 72.46437 56.978672 
L 72.46437 56.978672 
" clip-path="url(#p4e3e896162)" style="fill: none; stroke: #b6ff00; stroke-linecap: square"/>
   </g>
   <g id="patch_3">
    <path d="M 52.0125 133.206433 
L 52.0125 22.318125 
" style="fill: none; stroke: #0e7a2f; stroke-width: 0.8; stroke-linejoin: miter; stroke-linecap: square"/>
   </g>
   <g id="patch_4">
    <path d="M 386.8125 133.206433 
L 386.8125 22.318125 
" style="fill: none; stroke: #0e7a2f; stroke-width: 0.8; stroke-linejoin: miter; stroke-linecap: square"/>
   </g>
   <g id="patch_5">
    <path d="M 52.0125 133.206433 
L 386.8125 133.206433 
" style="fill: none; stroke: #0e7a2f; stroke-width: 0.8; stroke-linejoin: miter; stroke-linecap: square"/>
   </g>
   <g id="patch_6">
    <path d="M 52.0125 22.318125 
L 386.8125 22.318125 
" style="fill: none; stroke: #0e7a2f; stroke-width: 0.8; stroke-linejoin: miter; stroke-linecap: square"/>
   </g>
   <g id="text_11">
    <text style="font-size: 12px; font-family: 'DejaVu Sans Mono', 'Bitstream Vera Sans Mono', 'Computer Modern Typewriter', 'Andale Mono', 'Nimbus Mono L', 'Courier New', 'Courier', 'Fixed', 'Terminal', monospace; text-anchor: middle; fill: #39ff14" x="219.4125" y="16.318125" transform="rotate(-0 219.4125 16.318125)">Three-body figure-8</text>
   </g>
   <g id="legend_1">
    <g id="patch_7">
     <path d="M 197.392188 74.511875 
L 241.432813 74.511875 
Q 243.432813 74.511875 243.432813 72.511875 
L 243.432813 29.318125 
Q 243.432813 27.318125 241.432813 27.318125 
L 197.392188 27.318125 
Q 195.392188 27.318125 195.392188 29.318125 
L 195.392188 72.511875 
Q 195.392188 74.511875 197.392188 74.511875 
z
" style="fill: #020804; opacity: 0.3; stroke: #0e7a2f; stroke-linejoin: miter"/>
    </g>
    <g id="line2d_20">
     <path d="M 199.392188 35.469687 
L 209.392188 35.469687 
L 219.392188 35.469687 
" style="fill: none; stroke: #39ff14; stroke-linecap: square"/>
    </g>
    <g id="text_12">
     <text style="font-size: 10px; font-family: 'DejaVu Sans Mono', 'Bitstream Vera Sans Mono', 'Computer Modern Typewriter', 'Andale Mono', 'Nimbus Mono L', 'Courier New', 'Courier', 'Fixed', 'Terminal', monospace; text-anchor: start; fill: #d8ffe4" x="227.392188" y="38.969687" transform="rotate(-0 227.392188 38.969687)">m1</text>
    </g>
    <g id="line2d_21">
     <path d="M 199.392188 50.200937 
L 209.392188 50.200937 
L 219.392188 50.200937 
" style="fill: none; stroke: #00ff99; stroke-linecap: square"/>
    </g>
    <g id="text_13">
     <text style="font-size: 10px; font-family: 'DejaVu Sans Mono', 'Bitstream Vera Sans Mono', 'Computer Modern Typewriter', 'Andale Mono', 'Nimbus Mono L', 'Courier New', 'Courier', 'Fixed', 'Terminal', monospace; text-anchor: start; fill: #d8ffe4" x="227.392188" y="53.700937" transform="rotate(-0 227.392188 53.700937)">m2</text>
    </g>
    <g id="line2d_22">
     <path d="M 199.392188 64.932187 
L 209.392188 64.932187 
L 219.392188 64.932187 
" style="fill: none; stroke: #b6ff00; stroke-linecap: square"/>
    </g>
    <g id="text_14">
     <text style="font-size: 10px; font-family: 'DejaVu Sans Mono', 'Bitstream Vera Sans Mono', 'Computer Modern Typewriter', 'Andale Mono', 'Nimbus Mono L', 'Courier New', 'Courier', 'Fixed', 'Terminal', monospace; text-anchor: start; fill: #d8ffe4" x="227.392188" y="68.432187" transform="rotate(-0 227.392188 68.432187)">m3</text>
    </g>
   </g>
  </g>
 </g>
 <defs>
  <clipPath id="p4e3e896162">
   <rect x="52.0125" y="22.318125" width="334.8" height="110.888308"/>
  </clipPath>
 </defs>
</svg>
